<?xml version="1.0" standalone="no"?>
<!DOCTYPE svg PUBLIC "-//W3C//DTD SVG 20010904//EN"
 "http://www.w3.org/TR/2001/REC-SVG-20010904/DTD/svg10.dtd">
<svg version="1.0" xmlns="http://www.w3.org/2000/svg"
 width="192.000000pt" height="192.000000pt" viewBox="0 0 192.000000 192.000000"
 preserveAspectRatio="xMidYMid meet">
<metadata>
Created by potrace 1.14, written by Peter Selinger 2001-2017
</metadata>
<g transform="translate(0.000000,192.000000) scale(0.100000,-0.100000)"
fill="#000000" stroke="none">
<path d="M920 1781 c-88 -21 -92 -23 -153 -77 -35 -31 -56 -62 -88 -135 l-41
-94 11 -103 11 -104 -31 -71 c-39 -90 -89 -235 -89 -258 0 -9 -9 -38 -21 -64
-12 -28 -18 -56 -15 -70 4 -17 1 -27 -11 -35 -15 -8 -13 -9 10 -4 33 8 63 -22
45 -43 -15 -18 -93 -16 -108 2 -10 13 -17 12 -51 -8 -51 -29 -51 -55 1 -107
l40 -40 20 20 c11 11 20 26 20 33 0 7 6 21 13 31 18 25 67 13 60 -15 -3 -10
-9 -17 -13 -14 -16 10 -50 -27 -49 -53 l0 -27 10 25 c10 23 26 40 41 40 6 0
22 -39 20 -50 0 -3 6 -13 15 -22 8 -9 12 -22 7 -29 -4 -7 -3 -10 4 -5 6 3 13
2 17 -4 11 -19 -6 -50 -31 -56 -17 -4 -22 -10 -16 -16 11 -11 72 26 72 43 0
18 29 9 35 -12 6 -19 8 -19 24 -5 22 20 71 21 71 2 0 -8 -9 -18 -20 -21 -16
-5 -18 -10 -10 -25 6 -10 10 -35 10 -56 0 -36 -1 -36 -19 -20 -18 16 -19 15
-25 -25 l-7 -42 -29 33 c-21 24 -30 44 -30 68 0 33 -1 34 -18 19 -21 -20 -43
-22 -59 -6 -8 8 -13 8 -18 -1 -8 -12 12 -40 29 -40 6 0 27 -21 45 -46 19 -26
44 -50 55 -54 18 -7 23 -2 32 29 8 27 17 37 35 40 13 1 27 8 32 15 5 7 15 2
32 -17 l25 -28 9 22 c18 50 -14 85 -49 54 -11 -10 -23 -15 -27 -11 -11 10 11
40 33 45 10 2 23 10 30 18 7 10 18 13 33 8 18 -5 21 -12 17 -36 -3 -16 -9 -43
-12 -59 -4 -21 -2 -30 6 -28 7 2 16 -7 20 -19 14 -35 -33 -40 -81 -9 -55 37
-68 34 -66 -13 2 -48 26 -59 81 -36 61 26 86 14 51 -26 -15 -15 -14 -17 12
-24 22 -5 31 -2 42 15 8 12 32 33 53 46 21 13 38 29 38 34 0 5 -22 8 -49 7
-65 -3 -76 10 -77 83 0 48 3 60 15 60 26 0 43 -37 35 -75 -4 -25 -3 -35 6 -35
7 0 10 8 7 20 -4 15 0 20 14 20 27 0 24 12 -16 60 -40 48 -42 54 -16 45 16 -5
18 -2 14 15 -4 15 4 29 33 54 l39 33 -38 42 c-20 22 -37 44 -37 47 0 3 9 19
20 35 26 35 30 116 11 207 -10 49 -19 67 -41 82 -20 14 -35 40 -50 85 -12 37
-27 65 -35 65 -7 0 -16 14 -20 31 -8 34 12 64 49 75 26 8 106 84 106 101 0 7
4 13 10 13 5 0 16 13 25 30 8 16 25 35 38 41 18 10 16 5 -10 -25 -39 -44 -43
-90 -12 -130 31 -39 63 -49 104 -32 38 16 65 60 65 105 0 45 -47 94 -88 93
-18 0 -32 3 -32 7 0 12 77 81 130 117 107 73 141 63 161 -47 10 -54 16 -69 35
-78 12 -5 28 -20 35 -33 10 -20 8 -19 -14 5 -34 35 -68 35 -109 -2 -28 -25
-33 -36 -33 -74 0 -34 6 -52 24 -71 54 -58 141 -5 141 86 0 25 3 29 10 18 8
-12 10 -12 10 5 0 44 -40 169 -70 218 -34 57 -95 127 -110 127 -5 0 -28 13
-52 29 -118 79 -183 92 -308 62z"/>
<path d="M1451 1294 c0 -11 3 -14 6 -6 3 7 2 16 -1 19 -3 4 -6 -2 -5 -13z"/>
<path d="M1437 1254 c-4 -11 -19 -27 -32 -34 -15 -8 -25 -22 -25 -36 0 -40
-41 -159 -65 -184 -12 -14 -27 -34 -33 -45 -6 -11 -27 -29 -48 -40 -21 -11
-44 -30 -50 -43 -6 -13 -25 -38 -42 -55 -78 -83 -83 -175 -11 -222 19 -13 28
-26 25 -37 -3 -15 1 -17 31 -12 31 5 35 3 29 -11 -3 -9 -6 -29 -6 -43 l0 -27
-20 25 c-12 15 -20 20 -20 11 0 -8 8 -23 18 -34 16 -19 16 -19 -3 -16 -12 3
-24 17 -31 38 -10 31 -12 33 -22 16 -8 -15 -6 -28 9 -57 17 -34 18 -40 5 -53
-8 -8 -23 -15 -33 -16 -17 0 -17 -1 0 -8 22 -8 13 -18 -40 -45 -33 -16 -57
-76 -34 -84 6 -2 11 -11 12 -20 0 -11 2 -12 6 -4 9 22 22 13 43 -28 11 -21 20
-42 20 -45 0 -11 -24 -4 -42 11 -16 16 -18 15 -24 0 -8 -22 -8 -22 48 -29 44
-6 47 -5 56 22 8 22 25 34 76 56 51 22 64 31 55 41 -15 18 -7 65 13 78 21 13
35 1 20 -17 -12 -14 -5 -57 10 -57 9 0 71 31 95 48 8 5 0 8 -23 9 -53 2 -63
18 -23 38 22 12 46 16 78 12 l46 -5 -30 24 c-22 18 -26 24 -13 24 10 0 31 -13
48 -30 27 -26 33 -28 61 -18 l32 11 -31 16 c-17 9 -45 37 -61 62 -36 57 -54
71 -38 29 13 -35 2 -51 -17 -25 -12 17 -13 16 -20 -9 -6 -24 -9 -26 -22 -15
-9 7 -14 23 -11 35 3 16 0 20 -14 17 -15 -4 -17 -1 -10 23 5 21 14 30 33 32
15 2 32 10 38 18 17 19 45 18 70 -3 20 -17 20 -17 -2 -29 -21 -11 -21 -12 7
-26 16 -9 33 -29 39 -48 7 -23 21 -38 41 -46 26 -11 38 -9 85 11 l55 24 -32
11 c-18 7 -33 17 -33 23 0 7 -3 23 -7 37 -6 23 -5 24 13 10 44 -35 60 -39 72
-19 18 29 14 57 -10 70 -13 7 -36 25 -51 41 -16 15 -37 28 -48 28 -23 0 -69
28 -69 42 0 5 17 8 38 6 21 -2 36 -8 35 -15 -3 -15 25 -25 33 -12 3 6 -1 18
-10 28 -9 10 -16 22 -16 27 0 5 -14 21 -32 36 -31 25 -32 27 -15 45 23 26 22
46 -8 105 -28 55 -31 78 -12 78 9 0 9 2 -1 8 -7 5 -14 33 -15 67 -3 47 -7 61
-25 73 -12 8 -22 23 -22 33 0 11 -16 29 -35 41 -21 14 -39 35 -43 53 -8 27 -9
28 -15 9z m117 -538 c-3 -9 -12 -16 -20 -16 -17 0 -17 0 2 -45 8 -20 13 -39
11 -42 -3 -2 -21 3 -41 11 -34 14 -36 14 -36 -3 0 -11 -7 -22 -16 -25 -24 -9
-54 -7 -54 4 0 6 4 10 10 10 5 0 7 6 4 14 -3 9 5 16 23 21 15 3 31 12 35 18 5
9 10 9 20 -1 19 -19 33 -14 15 6 -25 27 -21 40 16 56 37 15 40 15 31 -8z m116
-153 c0 -25 -31 -46 -60 -41 -10 2 -25 -6 -33 -16 -14 -19 -15 -19 -22 3 -7
24 9 51 31 51 10 0 12 8 8 30 l-6 30 41 -18 c30 -13 41 -23 41 -39z m-231 10
c9 -7 -19 -26 -41 -28 -15 -1 -25 -11 -32 -33 -16 -45 -31 -58 -51 -42 -8 7
-13 15 -11 18 3 2 -5 13 -17 23 l-22 19 38 -6 c22 -4 37 -2 37 4 0 5 9 21 21
36 16 21 26 25 47 20 15 -4 29 -9 31 -11z m-152 -112 c22 -38 24 -39 55 -30
28 8 35 6 50 -13 23 -31 18 -42 -20 -44 -23 -1 -32 3 -33 15 -1 14 -2 13 -6
-1 -2 -10 -8 -18 -11 -19 -4 -1 -40 -3 -80 -5 -71 -3 -73 -3 -70 19 2 15 11
23 30 25 18 2 25 8 22 17 -3 7 -1 16 5 20 6 3 11 17 11 31 0 36 22 29 47 -15z
m352 -11 c-1 -41 -5 -50 -18 -48 -10 2 -17 15 -19 37 -4 41 3 61 23 61 11 0
14 -12 14 -50z m-491 -155 c2 -27 10 -58 18 -69 24 -34 16 -38 -20 -11 -39 30
-52 68 -36 109 15 41 35 26 38 -29z m97 46 c3 -5 1 -12 -5 -16 -5 -3 -10 -17
-10 -30 0 -13 -5 -27 -11 -31 -8 -4 -8 -9 0 -17 17 -17 13 -37 -7 -37 -32 0
-54 33 -43 64 6 14 15 26 21 26 5 0 10 6 10 13 0 14 19 37 31 37 4 0 10 -4 14
-9z"/>
<path d="M1266 415 c4 -8 8 -15 10 -15 2 0 4 7 4 15 0 8 -4 15 -10 15 -5 0 -7
-7 -4 -15z"/>
<path d="M1208 1100 c-63 -11 -80 -22 -48 -31 51 -14 99 -10 109 10 10 17 5
33 -8 30 -3 -1 -27 -5 -53 -9z"/>
<path d="M495 740 c-3 -6 1 -7 9 -4 18 7 21 14 7 14 -6 0 -13 -4 -16 -10z"/>
<path d="M290 654 c0 -8 5 -12 10 -9 6 4 8 11 5 16 -9 14 -15 11 -15 -7z"/>
<path d="M1716 651 c-4 -7 -5 -15 -2 -18 9 -9 19 4 14 18 -4 11 -6 11 -12 0z"/>
<path d="M319 614 c20 -14 23 -23 18 -60 -3 -35 -1 -44 10 -44 11 0 13 7 9 25
-4 14 -2 25 4 25 17 0 11 29 -10 50 -11 11 -28 20 -37 20 -14 0 -13 -3 6 -16z"/>
<path d="M285 580 c3 -5 8 -10 11 -10 2 0 4 5 4 10 0 6 -5 10 -11 10 -5 0 -7
-4 -4 -10z"/>
<path d="M526 553 c-6 -14 -5 -15 5 -6 7 7 10 15 7 18 -3 3 -9 -2 -12 -12z"/>
<path d="M270 550 c0 -5 5 -10 10 -10 6 0 10 5 10 10 0 6 -4 10 -10 10 -5 0
-10 -4 -10 -10z"/>
<path d="M400 516 c0 -31 -3 -36 -24 -36 -17 0 -26 -7 -30 -24 -4 -18 -14 -25
-41 -28 -19 -2 -40 1 -45 6 -13 13 -13 53 0 61 15 10 12 23 -7 29 -10 2 -28 7
-40 11 -14 4 -23 2 -23 -4 0 -6 6 -11 14 -11 7 0 16 -11 18 -25 4 -21 1 -25
-17 -25 -13 0 -26 8 -29 17 -6 14 -9 15 -16 4 -17 -28 6 -53 69 -79 58 -23 63
-23 80 -8 13 12 32 16 58 14 34 -3 38 -6 38 -29 -1 -26 0 -26 24 -11 l24 16
-7 -37 c-10 -54 21 -45 38 10 6 17 1 29 -18 47 -32 29 -45 83 -23 92 24 9 29
33 6 27 -10 -3 -26 0 -34 7 -13 11 -15 7 -15 -24z"/>
<path d="M496 513 c-12 -12 -6 -33 9 -33 8 0 15 6 15 14 0 17 -14 28 -24 19z"/>
<path d="M284 494 c3 -9 6 -18 6 -20 0 -2 5 -4 10 -4 6 0 10 9 10 20 0 12 -7
20 -16 20 -11 0 -14 -5 -10 -16z"/>
<path d="M540 474 c0 -8 5 -12 10 -9 6 3 10 10 10 16 0 5 -4 9 -10 9 -5 0 -10
-7 -10 -16z"/>
<path d="M498 438 c9 -9 15 -9 24 0 9 9 7 12 -12 12 -19 0 -21 -3 -12 -12z"/>
<path d="M1108 403 c7 -3 16 -2 19 1 4 3 -2 6 -13 5 -11 0 -14 -3 -6 -6z"/>
<path d="M986 182 c-3 -5 -23 -13 -43 -17 l-38 -7 45 -14 c58 -18 60 -17 60 4
0 24 -16 47 -24 34z"/>
</g>
</svg>
