<svg width="20" viewBox="0 0 39 38" fill="none" xmlns="http://www.w3.org/2000/svg">
<path fill-rule="evenodd" clip-rule="evenodd" d="M8.7344 25.5615C8.33879 24.5883 7.91481 23.5453 7.38206 22.4033C6.78131 21.3055 6.13882 20.2333 5.50088 19.1687C3.43714 15.7248 1.42096 12.3602 1.01915 8.46411C0.955328 7.8233 0.741664 3.86405 3.49298 1.39703C5.47103 -0.378284 10.5674 0.524408 13.2791 1.62277C14.8018 2.23976 16.0689 3.02904 17.4591 3.89501C19.0436 4.88197 20.4733 5.84515 23.253 7.01317C23.6857 7.19502 24.3283 7.39946 25.0819 7.63921C27.1692 8.30332 29.5201 9.15216 31.7976 10.7144C34.4555 12.5376 36.5477 15.3379 37.7624 18.3006C39.8773 23.4495 37.9198 29.0366 34.6049 32.7679C32.8009 34.7948 30.5558 36.4817 27.8895 37.2236C23.3376 38.4824 17.9357 36.7618 13.927 33.4169C11.0566 30.8549 10.2108 29.1935 8.7344 25.5615ZM22.5528 29.3646C20.934 29.2998 19.2848 28.6516 17.9011 27.4048C16.263 25.9343 15.3095 23.9059 15.1291 21.8674C14.9597 20.0086 14.7877 17.5705 15.9321 16.0796C17.1449 14.4951 19.5276 14.2143 21.3652 14.1337C23.1607 14.0543 24.845 14.9528 26.3962 16.3434C28.0007 17.7866 29.1404 19.5015 29.3511 21.5001C29.5533 23.4008 29.0937 25.3285 27.9264 26.8531C26.5922 28.5976 24.5989 29.4489 22.5528 29.3646Z" fill="#335449"/>
</svg>
