<svg width="897" height="725" viewBox="0 0 897 725" fill="none" xmlns="http://www.w3.org/2000/svg">
<path d="M783.383 411.351C790.366 443.481 777.764 481.163 753.63 501.269C729.446 521.184 693.799 523.404 661.893 518.309C629.917 513.335 601.733 501.238 584.805 479.101C567.997 457.034 562.325 424.858 571.376 398.613C580.546 372.437 604.388 352.003 632.157 340.9C659.995 329.676 691.759 327.784 720.925 340.128C749.971 352.402 776.47 379.101 783.383 411.351Z" fill="#EC5946"/>
<path d="M774.912 379.728C781.895 411.858 769.293 449.54 745.159 469.645C720.974 489.561 685.328 491.78 653.421 486.686C621.446 481.712 593.262 469.614 576.334 447.478C559.526 425.41 553.854 393.235 562.904 366.989C572.075 340.814 595.917 320.379 623.686 309.276C651.524 298.053 683.288 296.161 712.454 308.504C741.5 320.778 767.999 347.477 774.912 379.728Z" fill="#FCCCDC"/>
<rect x="603.476" y="368.119" width="10.4174" height="50.9297" rx="1" fill="#7673D4"/>
<path d="M608.971 365.804C595.461 365.804 602.386 350.601 608.152 342.596C608.549 342.045 609.362 342.07 609.731 342.64C615.405 351.409 621.24 365.804 608.971 365.804Z" fill="#EC5946"/>
<rect x="667.14" y="409.789" width="10.4174" height="50.9297" rx="1" fill="#7673D4"/>
<path d="M672.635 407.474C659.125 407.474 666.049 392.27 671.816 384.266C672.213 383.714 673.026 383.739 673.395 384.309C679.069 393.079 684.904 407.474 672.635 407.474Z" fill="#EC5946"/>
<rect x="719.226" y="334.552" width="10.4174" height="50.9297" rx="1" fill="#7673D4"/>
<path d="M724.72 332.237C711.21 332.237 718.135 317.034 723.901 309.029C724.298 308.478 725.111 308.502 725.48 309.072C731.154 317.842 736.989 332.237 724.72 332.237Z" fill="#EC5946"/>
<rect x="647.462" y="306.772" width="10.4174" height="50.9297" rx="1" fill="#7673D4"/>
<path d="M652.957 304.457C639.447 304.457 646.371 289.254 652.138 281.249C652.535 280.698 653.348 280.722 653.717 281.293C659.391 290.062 665.226 304.457 652.957 304.457Z" fill="#EC5946"/>
<path d="M673.296 154.687C681.697 193.342 666.536 238.677 637.501 262.866C608.404 286.827 565.517 289.497 527.131 283.368C488.661 277.384 454.753 262.829 434.387 236.197C414.166 209.648 407.342 170.937 418.23 139.361C429.263 107.869 457.948 83.2846 491.356 69.9266C524.848 56.4237 563.063 54.1477 598.153 68.998C633.098 83.7646 664.979 115.886 673.296 154.687Z" fill="#EC5946"/>
<path d="M671.782 147.653C680.183 186.309 665.021 231.644 635.986 255.833C606.889 279.794 564.003 282.464 525.616 276.335C487.146 270.35 453.238 255.796 432.872 229.163C412.651 202.614 405.827 163.904 416.716 132.328C427.749 100.836 456.433 76.2514 489.841 62.8933C523.333 49.3905 561.549 47.1145 596.639 61.9648C631.583 76.7314 663.464 108.853 671.782 147.653Z" fill="#FCCCDC"/>
<path d="M640.735 154.256C647.117 183.621 635.6 218.06 613.542 236.436C591.439 254.638 558.859 256.666 529.698 252.01C500.474 247.464 474.715 236.408 459.244 216.176C443.883 196.007 438.699 166.6 446.97 142.613C455.352 118.69 477.142 100.014 502.521 89.8663C527.964 79.6086 556.995 77.8796 583.652 89.1609C610.198 100.379 634.417 124.78 640.735 154.256Z" fill="#EC5946"/>
<path d="M639.219 147.222C645.602 176.588 634.084 211.027 612.027 229.403C589.923 247.605 557.344 249.633 528.183 244.977C498.959 240.431 473.2 229.374 457.728 209.143C442.367 188.974 437.183 159.567 445.455 135.58C453.836 111.657 475.627 92.9807 501.006 82.833C526.448 72.5754 555.479 70.8464 582.136 82.1277C608.682 93.3454 632.901 117.747 639.219 147.222Z" fill="white"/>
<path d="M609.855 152.423C614.396 173.313 606.202 197.813 590.511 210.886C574.786 223.834 551.61 225.277 530.865 221.965C510.075 218.731 491.75 210.865 480.744 196.473C469.816 182.125 466.129 161.205 472.013 144.141C477.975 127.122 493.477 113.836 511.531 106.617C529.631 99.32 550.283 98.09 569.247 106.115C588.132 114.096 605.36 131.455 609.855 152.423Z" fill="#EC5946"/>
<path d="M608.34 145.39C612.88 166.28 604.686 190.78 588.995 203.852C573.271 216.801 550.094 218.244 529.349 214.932C508.559 211.698 490.235 203.832 479.228 189.439C468.301 175.092 464.613 154.172 470.497 137.108C476.46 120.089 491.961 106.803 510.016 99.584C528.115 92.2868 548.768 91.0568 567.731 99.0822C586.616 107.062 603.845 124.421 608.34 145.39Z" fill="#FCCCDC"/>
<path d="M330.835 529.283C353.73 510.276 387.281 506.244 420.111 507.108C452.942 507.972 484.909 513.732 507.084 532.595C529.403 551.458 541.787 583.425 539.915 613.376C537.899 643.471 521.483 671.406 499.308 691.997C476.989 712.588 449.054 725.692 421.695 724.972C394.336 724.252 367.697 709.852 344.946 689.261C322.051 668.67 303.188 642.031 299.588 611.936C296.132 581.697 308.084 548.147 330.835 529.283Z" fill="white"/>
<path d="M412.729 540.938C414.78 542.696 417.786 543.069 420.727 542.989C423.668 542.909 426.532 542.377 428.519 540.632C430.518 538.888 431.627 535.932 431.46 533.162C431.279 530.379 429.809 527.796 427.822 525.892C425.822 523.988 423.32 522.776 420.869 522.842C418.418 522.909 416.032 524.241 413.993 526.145C411.942 528.049 410.252 530.512 409.93 533.295C409.62 536.092 410.691 539.194 412.729 540.938Z" fill="#EC5946"/>
<path d="M467.446 553.897C469.498 555.655 472.503 556.028 475.444 555.948C478.386 555.868 481.249 555.336 483.236 553.591C485.235 551.847 486.345 548.891 486.177 546.121C485.996 543.338 484.526 540.755 482.539 538.851C480.54 536.947 478.037 535.735 475.586 535.801C473.135 535.868 470.749 537.2 468.711 539.104C466.66 541.008 464.97 543.471 464.647 546.254C464.338 549.051 465.408 552.153 467.446 553.897Z" fill="#EC5946"/>
<path d="M499.124 594.216C501.175 595.974 504.181 596.347 507.122 596.267C510.063 596.187 512.927 595.654 514.913 593.91C516.913 592.166 518.022 589.21 517.855 586.44C517.674 583.657 516.203 581.074 514.217 579.17C512.217 577.265 509.715 576.054 507.264 576.12C504.813 576.187 502.426 577.518 500.388 579.423C498.337 581.327 496.647 583.79 496.325 586.573C496.015 589.369 497.086 592.472 499.124 594.216Z" fill="#EC5946"/>
<path d="M499.125 643.174C501.176 644.931 504.182 645.304 507.123 645.224C510.064 645.145 512.928 644.612 514.915 642.868C516.914 641.123 518.024 638.167 517.856 635.397C517.675 632.614 516.205 630.031 514.218 628.127C512.219 626.223 509.716 625.011 507.265 625.078C504.814 625.144 502.428 626.476 500.39 628.38C498.338 630.284 496.649 632.748 496.326 635.531C496.017 638.327 497.087 641.429 499.125 643.174Z" fill="#EC5946"/>
<path d="M466.004 684.933C468.055 686.69 471.061 687.063 474.002 686.983C476.943 686.903 479.807 686.371 481.793 684.626C483.793 682.882 484.902 679.926 484.735 677.156C484.554 674.373 483.083 671.79 481.097 669.886C479.097 667.982 476.595 666.77 474.144 666.837C471.693 666.903 469.306 668.235 467.268 670.139C465.217 672.043 463.527 674.506 463.205 677.289C462.895 680.086 463.966 683.188 466.004 684.933Z" fill="#EC5946"/>
<path d="M418.486 705.092C420.537 706.85 423.543 707.223 426.484 707.143C429.425 707.063 432.289 706.53 434.275 704.786C436.275 703.042 437.384 700.086 437.217 697.316C437.036 694.533 435.565 691.95 433.579 690.046C431.579 688.141 429.077 686.93 426.626 686.996C424.175 687.063 421.788 688.394 419.75 690.299C417.699 692.203 416.009 694.666 415.687 697.449C415.377 700.245 416.448 703.348 418.486 705.092Z" fill="#EC5946"/>
<path d="M366.649 689.252C368.7 691.01 371.706 691.383 374.647 691.303C377.588 691.223 380.452 690.69 382.438 688.946C384.438 687.202 385.547 684.246 385.38 681.476C385.199 678.693 383.728 676.11 381.742 674.206C379.742 672.302 377.24 671.09 374.789 671.156C372.338 671.223 369.951 672.555 367.913 674.459C365.862 676.363 364.172 678.826 363.85 681.609C363.54 684.406 364.611 687.508 366.649 689.252Z" fill="#EC5946"/>
<path d="M336.41 660.454C338.461 662.211 341.467 662.584 344.408 662.504C347.349 662.424 350.213 661.892 352.199 660.147C354.199 658.403 355.308 655.447 355.14 652.677C354.96 649.894 353.489 647.311 351.503 645.407C349.503 643.503 347.001 642.291 344.55 642.358C342.099 642.424 339.712 643.756 337.674 645.66C335.623 647.564 333.933 650.027 333.611 652.81C333.301 655.607 334.372 658.709 336.41 660.454Z" fill="#EC5946"/>
<path d="M319.131 614.375C321.182 616.133 324.188 616.506 327.129 616.426C330.07 616.346 332.934 615.814 334.92 614.069C336.92 612.325 338.029 609.369 337.862 606.599C337.681 603.816 336.21 601.233 334.224 599.329C332.224 597.425 329.722 596.213 327.271 596.279C324.82 596.346 322.433 597.678 320.395 599.582C318.344 601.486 316.654 603.949 316.332 606.732C316.022 609.529 317.093 612.631 319.131 614.375Z" fill="#EC5946"/>
<path d="M326.33 568.297C328.381 570.055 331.387 570.427 334.328 570.347C337.269 570.268 340.133 569.735 342.12 567.991C344.119 566.246 345.229 563.29 345.061 560.52C344.88 557.738 343.41 555.154 341.423 553.25C339.424 551.346 336.921 550.134 334.47 550.201C332.019 550.267 329.633 551.599 327.594 553.503C325.543 555.407 323.853 557.871 323.531 560.654C323.221 563.45 324.292 566.552 326.33 568.297Z" fill="#EC5946"/>
<path d="M366.649 540.938C368.7 542.696 371.706 543.069 374.647 542.989C377.588 542.909 380.452 542.377 382.438 540.632C384.438 538.888 385.547 535.932 385.38 533.162C385.199 530.379 383.728 527.796 381.742 525.892C379.742 523.988 377.24 522.776 374.789 522.842C372.338 522.909 369.951 524.241 367.913 526.145C365.862 528.049 364.172 530.512 363.85 533.295C363.54 536.092 364.611 539.194 366.649 540.938Z" fill="#EC5946"/>
<path d="M371.621 223.415C379.053 257.614 365.64 297.722 339.952 319.122C314.211 340.32 276.269 342.682 242.308 337.259C208.274 331.965 178.275 319.089 160.257 295.527C142.368 272.039 136.33 237.791 145.963 209.857C155.725 181.996 181.102 160.245 210.658 148.427C240.288 136.481 274.098 134.468 305.142 147.606C336.057 160.67 364.262 189.088 371.621 223.415Z" fill="white"/>
<path d="M363.783 195.629C371.216 229.828 357.802 269.936 332.115 291.336C306.373 312.534 268.431 314.896 234.47 309.474C200.436 304.179 170.437 291.303 152.42 267.741C134.53 244.253 128.493 210.006 138.126 182.071C147.887 154.21 173.264 132.46 202.82 120.642C232.45 108.696 266.26 106.682 297.304 119.82C328.22 132.884 356.425 161.302 363.783 195.629Z" fill="#7673D4"/>
<path d="M241.969 222.532C244.379 224.597 247.91 225.035 251.365 224.941C254.82 224.847 258.184 224.222 260.518 222.173C262.867 220.123 264.17 216.651 263.973 213.397C263.761 210.128 262.033 207.093 259.7 204.856C257.351 202.619 254.411 201.196 251.531 201.274C248.652 201.352 245.849 202.917 243.454 205.153C241.045 207.39 239.06 210.284 238.681 213.553C238.317 216.838 239.575 220.483 241.969 222.532Z" fill="#EC5946"/>
<path d="M770.242 535.999L794.242 518.999C794.242 518.999 774.242 495.999 775.242 471C766.242 474 754.242 470.5 742.742 479.499C728.242 494.5 712.742 494.5 706.242 497C699.742 499.5 687.242 508 694.742 513.5C698.242 515.5 709.076 516.165 712.242 514.499C707.076 517.832 692.242 523.399 674.242 518.999C656.242 514.599 648.242 519.5 647.242 523C636.242 523.5 634.742 526.501 634.742 531C627.242 533 629.242 542.999 629.242 542.999C635.742 548 644.242 542.5 684.742 549.499C729.769 557.28 760.242 544.999 770.242 535.999Z" fill="white"/>
<path d="M775 464.504V464.5L979.01 377V461.5C935.343 493 836.512 523 799.012 523C775.001 502.001 775 483.502 775 464.504Z" fill="#FCCCDC"/>
<path d="M263.575 520.042C254.609 556.014 221.877 586.585 184.824 595.767C147.772 604.95 106.182 592.743 78.5277 565.736C50.7652 538.622 36.938 496.708 46.9843 462.68C56.9226 428.544 90.8425 402.402 127.679 393.652C164.408 384.794 203.945 393.22 231.167 418.066C258.173 442.912 272.649 484.177 263.575 520.042Z" fill="#FCCCDC"/>
<path d="M259.573 493.042C250.607 529.014 217.876 559.585 180.823 568.767C143.77 577.95 102.181 565.743 74.5262 538.736C46.7637 511.622 32.9365 469.708 42.9828 435.68C52.9211 401.544 86.841 375.402 123.678 366.652C160.406 357.794 199.943 366.22 227.166 391.066C254.172 415.912 268.647 457.177 259.573 493.042Z" fill="white"/>
<path d="M109.811 440.964C108.481 442.219 106.353 442.669 104.741 442.054C103.137 441.43 102.058 439.74 101.427 438.027C100.788 436.314 100.591 434.585 101.176 433.125C101.761 431.672 103.13 430.48 104.62 430.18C106.109 429.888 107.729 430.48 109.013 431.53C110.306 432.58 111.263 434.088 111.476 435.872C111.689 437.648 111.149 439.709 109.811 440.964Z" fill="#FCCCDC"/>
<path d="M65.508 451.658C64.1777 452.914 62.0492 453.364 60.4377 452.748C58.8337 452.124 57.7543 450.435 57.1234 448.722C56.4848 447.008 56.2872 445.28 56.8725 443.819C57.4578 442.366 58.8261 441.174 60.3161 440.874C61.806 440.582 63.4251 441.174 64.7098 442.224C66.0021 443.274 66.9599 444.782 67.1728 446.566C67.3856 448.343 66.8459 450.403 65.508 451.658Z" fill="#FCCCDC"/>
<path d="M102.173 492.907C100.843 494.162 98.7143 494.612 97.1027 493.996C95.4988 493.372 94.4193 491.683 93.7884 489.97C93.1499 488.257 92.9522 486.528 93.5375 485.067C94.1229 483.614 95.4912 482.422 96.9811 482.122C98.471 481.83 100.09 482.422 101.375 483.472C102.667 484.522 103.625 486.03 103.838 487.814C104.051 489.591 103.511 491.651 102.173 492.907Z" fill="#FCCCDC"/>
<path d="M99.1176 538.738C97.7873 539.993 95.6589 540.443 94.0473 539.827C92.4434 539.203 91.3639 537.514 90.733 535.801C90.0944 534.088 89.8968 532.359 90.4821 530.898C91.0675 529.445 92.4358 528.253 93.9257 527.953C95.4156 527.661 97.0348 528.253 98.3194 529.303C99.6117 530.353 100.57 531.861 100.782 533.645C100.995 535.422 100.456 537.482 99.1176 538.738Z" fill="#FCCCDC"/>
<path d="M115.922 405.827C114.592 407.082 112.464 407.532 110.852 406.916C109.248 406.293 108.169 404.603 107.538 402.89C106.899 401.177 106.701 399.448 107.287 397.987C107.872 396.535 109.24 395.343 110.73 395.043C112.22 394.751 113.839 395.343 115.124 396.393C116.416 397.443 117.374 398.951 117.587 400.735C117.8 402.511 117.26 404.572 115.922 405.827Z" fill="#FCCCDC"/>
<path d="M105.91 412.137C108.264 414.798 109.108 419.055 107.953 422.278C106.784 425.486 103.616 427.645 100.404 428.907C97.1915 430.184 93.9497 430.579 91.2112 429.408C88.4875 428.238 86.2523 425.501 85.6898 422.521C85.1421 419.541 86.2523 416.303 88.2211 413.734C90.1899 411.149 93.0172 409.234 96.3626 408.808C99.6932 408.382 103.557 409.462 105.91 412.137Z" fill="#EC5946"/>
<path d="M86.0502 454.913C88.4039 457.574 89.2476 461.831 88.093 465.054C86.9236 468.262 83.7558 470.421 80.5436 471.682C77.3314 472.96 74.0896 473.355 71.3511 472.184C68.6274 471.014 66.3922 468.277 65.8297 465.297C65.282 462.317 66.3922 459.079 68.361 456.51C70.3297 453.925 73.1571 452.009 76.5025 451.584C79.8331 451.158 83.6966 452.237 86.0502 454.913Z" fill="#EC5946"/>
<path d="M102.855 502.272C105.209 504.933 106.052 509.19 104.898 512.413C103.728 515.621 100.56 517.779 97.3483 519.041C94.1361 520.318 90.8943 520.714 88.1558 519.543C85.4321 518.372 83.1969 515.636 82.6344 512.656C82.0867 509.676 83.1969 506.438 85.1657 503.868C87.1344 501.284 89.9618 499.368 93.3072 498.943C96.6378 498.517 100.501 499.596 102.855 502.272Z" fill="#EC5946"/>
<path d="M71.2898 430.838C71.7605 431.408 71.9293 432.321 71.6983 433.011C71.4645 433.699 70.8309 434.161 70.1885 434.432C69.546 434.705 68.8977 434.79 68.35 434.539C67.8052 434.288 67.3582 433.702 67.2457 433.063C67.1361 432.425 67.3582 431.731 67.7519 431.18C68.1457 430.626 68.7111 430.216 69.3802 430.125C70.0464 430.034 70.8191 430.265 71.2898 430.838Z" fill="#7673D4"/>
<path d="M94.2053 394.174C94.676 394.744 94.8448 395.656 94.6139 396.347C94.38 397.034 93.7464 397.497 93.104 397.767C92.4615 398.041 91.8132 398.125 91.2655 397.875C90.7208 397.624 90.2737 397.037 90.1612 396.399C90.0517 395.76 90.2737 395.066 90.6675 394.516C91.0612 393.962 91.6267 393.551 92.2958 393.46C92.9619 393.369 93.7346 393.6 94.2053 394.174Z" fill="#7673D4"/>
<path d="M94.2053 455.282C94.676 455.852 94.8448 456.764 94.6139 457.455C94.38 458.142 93.7464 458.605 93.104 458.875C92.4615 459.149 91.8132 459.233 91.2655 458.983C90.7208 458.732 90.2737 458.145 90.1612 457.507C90.0517 456.868 90.2737 456.174 90.6675 455.624C91.0612 455.07 91.6267 454.659 92.2958 454.568C92.9619 454.477 93.7346 454.708 94.2053 455.282Z" fill="#7673D4"/>
<path d="M77.4006 488.891C77.8713 489.462 78.0401 490.374 77.8092 491.064C77.5753 491.752 76.9417 492.214 76.2993 492.485C75.6569 492.759 75.0085 492.843 74.4608 492.592C73.9161 492.342 73.469 491.755 73.3565 491.117C73.247 490.478 73.469 489.784 73.8628 489.234C74.2565 488.68 74.822 488.269 75.4911 488.178C76.1572 488.087 76.9299 488.318 77.4006 488.891Z" fill="#7673D4"/>
<path d="M107.955 520.973C108.426 521.543 108.594 522.455 108.363 523.146C108.129 523.833 107.496 524.296 106.853 524.566C106.211 524.84 105.563 524.925 105.015 524.674C104.47 524.423 104.023 523.837 103.911 523.198C103.801 522.56 104.023 521.866 104.417 521.315C104.811 520.761 105.376 520.351 106.045 520.26C106.711 520.168 107.484 520.4 107.955 520.973Z" fill="#7673D4"/>
<path d="M75.3674 430.838C74.8967 431.408 74.728 432.321 74.9589 433.011C75.1928 433.699 75.8263 434.161 76.4688 434.432C77.1112 434.705 77.7596 434.79 78.3073 434.539C78.852 434.288 79.299 433.702 79.4115 433.063C79.5211 432.425 79.299 431.731 78.9053 431.18C78.5115 430.626 77.9461 430.216 77.277 430.125C76.6109 430.034 75.8382 430.265 75.3674 430.838Z" fill="#7673D4"/>
<path d="M98.283 394.174C97.8122 394.744 97.6435 395.656 97.8744 396.347C98.1083 397.034 98.7419 397.497 99.3843 397.767C100.027 398.041 100.675 398.125 101.223 397.875C101.768 397.624 102.215 397.037 102.327 396.399C102.437 395.76 102.215 395.066 101.821 394.516C101.427 393.962 100.862 393.551 100.193 393.46C99.5264 393.369 98.7537 393.6 98.283 394.174Z" fill="#7673D4"/>
<path d="M98.283 455.282C97.8122 455.852 97.6435 456.764 97.8744 457.455C98.1083 458.142 98.7419 458.605 99.3843 458.875C100.027 459.149 100.675 459.233 101.223 458.983C101.768 458.732 102.215 458.145 102.327 457.507C102.437 456.868 102.215 456.174 101.821 455.624C101.427 455.07 100.862 454.659 100.193 454.568C99.5264 454.477 98.7537 454.708 98.283 455.282Z" fill="#7673D4"/>
<path d="M81.4783 488.891C81.0076 489.462 80.8388 490.374 81.0697 491.064C81.3036 491.752 81.9372 492.214 82.5796 492.485C83.222 492.759 83.8704 492.843 84.4181 492.592C84.9628 492.342 85.4099 491.755 85.5224 491.117C85.6319 490.478 85.4099 489.784 85.0161 489.234C84.6224 488.68 84.0569 488.269 83.3878 488.178C82.7217 488.087 81.949 488.318 81.4783 488.891Z" fill="#7673D4"/>
<path d="M112.032 520.973C111.562 521.543 111.393 522.455 111.624 523.146C111.858 523.833 112.491 524.296 113.134 524.566C113.776 524.84 114.425 524.925 114.972 524.674C115.517 524.423 115.964 523.837 116.077 523.198C116.186 522.56 115.964 521.866 115.57 521.315C115.177 520.761 114.611 520.351 113.942 520.26C113.276 520.168 112.503 520.4 112.032 520.973Z" fill="#7673D4"/>
<path d="M70.7844 436.949C70.3137 437.519 70.145 438.431 70.3759 439.122C70.6098 439.809 71.2433 440.272 71.8858 440.542C72.5282 440.816 73.1766 440.901 73.7243 440.65C74.269 440.399 74.716 439.813 74.8285 439.174C74.9381 438.536 74.716 437.842 74.3223 437.291C73.9285 436.737 73.3631 436.327 72.694 436.236C72.0279 436.144 71.2552 436.376 70.7844 436.949Z" fill="#7673D4"/>
<path d="M93.7 400.285C93.2292 400.855 93.0605 401.767 93.2914 402.458C93.5253 403.145 94.1588 403.608 94.8013 403.878C95.4437 404.152 96.0921 404.236 96.6398 403.985C97.1845 403.735 97.6316 403.148 97.7441 402.51C97.8536 401.871 97.6316 401.177 97.2378 400.627C96.8441 400.073 96.2786 399.662 95.6095 399.571C94.9434 399.48 94.1707 399.711 93.7 400.285Z" fill="#7673D4"/>
<path d="M93.7 461.392C93.2292 461.963 93.0605 462.875 93.2914 463.565C93.5253 464.253 94.1588 464.715 94.8013 464.986C95.4437 465.26 96.0921 465.344 96.6398 465.093C97.1845 464.842 97.6316 464.256 97.7441 463.618C97.8536 462.979 97.6316 462.285 97.2378 461.735C96.8441 461.181 96.2786 460.77 95.6095 460.679C94.9434 460.588 94.1707 460.819 93.7 461.392Z" fill="#7673D4"/>
<path d="M76.895 495.002C76.4243 495.572 76.2556 496.485 76.4865 497.175C76.7204 497.863 77.3539 498.325 77.9964 498.596C78.6388 498.869 79.2872 498.954 79.8349 498.703C80.3796 498.452 80.8266 497.866 80.9391 497.227C81.0487 496.589 80.8266 495.895 80.4329 495.344C80.0391 494.791 79.4737 494.38 78.8046 494.289C78.1385 494.198 77.3658 494.429 76.895 495.002Z" fill="#7673D4"/>
<path d="M107.449 527.084C106.979 527.654 106.81 528.566 107.041 529.257C107.275 529.944 107.908 530.407 108.551 530.677C109.193 530.951 109.841 531.036 110.389 530.785C110.934 530.534 111.381 529.947 111.493 529.309C111.603 528.67 111.381 527.976 110.987 527.426C110.593 526.872 110.028 526.462 109.359 526.37C108.693 526.279 107.92 526.51 107.449 527.084Z" fill="#7673D4"/>
<path d="M143.745 387.772C139.124 395.281 126.195 394.165 122.283 387.831C122.097 387.529 122.112 387.146 122.321 386.86C126.66 380.949 139.938 379.828 143.772 386.88C143.924 387.159 143.911 387.502 143.745 387.772Z" fill="#335449"/>
<path d="M100.146 570.174C93.0132 563.014 98.0096 549.44 106.234 547.235C106.564 547.146 106.915 547.255 107.137 547.515C112.561 553.868 110 568.51 100.977 570.423C100.678 570.487 100.362 570.391 100.146 570.174Z" fill="#335449"/>
<path d="M116.538 385.524C107.99 378.739 111.702 363.552 120.263 360.22C120.582 360.096 120.943 360.164 121.194 360.396C127.807 366.515 126.854 382.557 117.393 385.678C117.102 385.774 116.778 385.714 116.538 385.524Z" fill="#335449"/>
<path d="M113.63 544.323C123.03 541.795 131.992 552.455 129.921 560.394C129.834 560.725 129.566 560.976 129.23 561.039C121.316 562.522 110.304 553.385 113.001 544.921C113.094 544.629 113.334 544.403 113.63 544.323Z" fill="#335449"/>
</svg>
