<svg viewBox="0 0 354 324" fill="none" xmlns="http://www.w3.org/2000/svg">
<path d="M268.208 161.524C275.515 195.147 262.328 234.58 237.072 255.62C211.764 276.461 174.461 278.783 141.072 273.452C107.61 268.247 78.1164 255.587 60.4018 232.422C42.8132 209.329 36.8778 175.658 46.3487 148.194C55.9456 120.802 80.8955 99.4175 109.954 87.7986C139.086 76.0536 172.326 74.074 202.848 86.9909C233.243 99.8351 260.973 127.775 268.208 161.524Z" fill="#EC5946"/>
<path d="M259.343 128.431C266.651 162.054 253.463 201.486 228.208 222.526C202.899 243.368 165.596 245.69 132.207 240.359C98.7454 235.154 69.2516 222.494 51.537 199.329C33.9485 176.236 28.0131 142.565 37.4839 115.1C47.0808 87.7085 72.0307 66.3242 101.089 54.7053C130.221 42.9603 163.461 40.9807 193.983 53.8976C224.378 66.7418 252.108 94.6814 259.343 128.431Z" fill="#FCCCDC"/>
<rect x="79.9414" y="116.283" width="10.9015" height="53.2963" rx="1" fill="#7673D4"/>
<path d="M85.6916 113.861C71.5245 113.861 78.8298 97.8851 84.8719 89.5223C85.2696 88.9717 86.0825 88.9964 86.4521 89.5662C92.4007 98.7378 98.5557 113.861 85.6916 113.861Z" fill="#EC5946"/>
<rect x="146.563" y="159.888" width="10.9015" height="53.2963" rx="1" fill="#7673D4"/>
<path d="M152.314 157.466C138.147 157.466 145.452 141.49 151.494 133.127C151.892 132.577 152.705 132.601 153.074 133.171C159.023 142.343 165.178 157.466 152.314 157.466Z" fill="#EC5946"/>
<rect x="201.069" y="81.1558" width="10.9015" height="53.2963" rx="1" fill="#7673D4"/>
<path d="M206.819 78.7328C192.652 78.7328 199.957 62.7572 205.999 54.3943C206.397 53.8438 207.21 53.8685 207.58 54.4383C213.528 63.6099 219.683 78.7328 206.819 78.7328Z" fill="#EC5946"/>
<rect x="125.97" y="52.085" width="10.9015" height="53.2963" rx="1" fill="#7673D4"/>
<path d="M131.721 49.6624C117.554 49.6624 124.859 33.6869 130.901 25.324C131.299 24.7735 132.112 24.7981 132.481 25.368C138.43 34.5396 144.585 49.6624 131.721 49.6624Z" fill="#EC5946"/>
<path d="M254.456 291.963L279.571 274.173C279.571 274.173 258.642 250.104 259.688 223.944C250.27 227.083 237.713 223.421 225.678 232.838C210.504 248.536 194.284 248.536 187.482 251.152C180.68 253.768 167.599 262.663 175.448 268.419C179.11 270.512 190.447 271.208 193.761 269.464C188.354 272.952 172.832 278.778 153.995 274.173C135.159 269.569 126.787 274.698 125.741 278.36C114.229 278.883 112.66 282.024 112.66 286.732C104.811 288.825 106.904 299.288 106.904 299.288C113.706 304.522 122.601 298.766 164.983 306.09C212.103 314.233 243.991 301.381 254.456 291.963Z" fill="white"/>
<path d="M259.435 217.146V217.142L472.925 125.576V214.003C427.229 246.966 323.805 278.36 284.562 278.36C259.436 256.386 259.436 237.028 259.435 217.146Z" fill="#FCCCDC"/>
</svg>
