<svg viewBox="0 0 196 104" fill="none" xmlns="http://www.w3.org/2000/svg">
<path d="M122.223 7.85599C130.295 1.15497 142.123 -0.266466 153.698 0.0381298C165.272 0.342718 176.542 2.37333 184.36 9.02358C192.229 15.6738 196.595 26.9437 195.935 37.5029C195.224 48.1129 189.437 57.9613 181.619 65.2208C173.75 72.4802 163.902 77.0998 154.256 76.846C144.611 76.5922 135.219 71.5156 127.198 64.2562C119.127 56.9968 112.476 47.6052 111.207 36.9953C109.989 26.3345 114.202 14.5062 122.223 7.85599Z" fill="white"/>
<path d="M153.261 11.3714C153.985 11.9911 155.044 12.1225 156.081 12.0943C157.118 12.0662 158.128 11.8784 158.828 11.2634C159.533 10.6484 159.924 9.60628 159.865 8.62984C159.801 7.6487 159.283 6.73798 158.582 6.06667C157.878 5.39536 156.995 4.96817 156.131 4.99164C155.267 5.01512 154.426 5.48456 153.707 6.15586C152.984 6.82717 152.388 7.69564 152.275 8.67678C152.165 9.66261 152.543 10.7564 153.261 11.3714Z" fill="#EC5946"/>
<path d="M164.574 25.0124C165.297 25.632 166.356 25.7635 167.393 25.7353C168.43 25.7072 169.44 25.5194 170.14 24.9044C170.845 24.2894 171.236 23.2473 171.177 22.2708C171.113 21.2897 170.595 20.379 169.895 19.7077C169.19 19.0364 168.307 18.6092 167.443 18.6326C166.579 18.6561 165.738 19.1256 165.019 19.7969C164.296 20.4682 163.7 21.3366 163.587 22.3178C163.478 23.3036 163.855 24.3974 164.574 25.0124Z" fill="#EC5946"/>
<path d="M181.542 33.9957C182.265 34.6153 183.325 34.7468 184.361 34.7186C185.398 34.6904 186.408 34.5027 187.108 33.8877C187.813 33.2727 188.204 32.2305 188.145 31.2541C188.082 30.273 187.563 29.3622 186.863 28.6909C186.158 28.0196 185.276 27.5924 184.412 27.6159C183.547 27.6394 182.706 28.1088 181.988 28.7801C181.264 29.4514 180.669 30.3199 180.555 31.301C180.446 32.2869 180.823 33.3807 181.542 33.9957Z" fill="#EC5946"/>
<path d="M160.914 44.975C161.637 45.5947 162.697 45.7261 163.734 45.698C164.77 45.6698 165.78 45.482 166.48 44.8671C167.185 44.2521 167.576 43.2099 167.517 42.2335C167.454 41.2523 166.935 40.3416 166.235 39.6703C165.53 38.999 164.648 38.5718 163.784 38.5953C162.92 38.6188 162.078 39.0882 161.36 39.7595C160.636 40.4308 160.041 41.2993 159.927 42.2804C159.818 43.2663 160.195 44.3601 160.914 44.975Z" fill="#EC5946"/>
<path d="M177.549 50.6309C178.273 51.2506 179.332 51.382 180.369 51.3539C181.406 51.3257 182.416 51.1379 183.116 50.5229C183.821 49.908 184.212 48.8658 184.153 47.8894C184.089 46.9082 183.571 45.9975 182.87 45.3262C182.165 44.6549 181.283 44.2277 180.419 44.2512C179.555 44.2746 178.714 44.7441 177.995 45.4154C177.272 46.0867 176.676 46.9552 176.563 47.9363C176.453 48.9221 176.831 50.0159 177.549 50.6309Z" fill="#EC5946"/>
<path d="M162.245 64.9377C162.968 65.5573 164.027 65.6888 165.064 65.6606C166.101 65.6325 167.111 65.4447 167.811 64.8297C168.516 64.2147 168.907 63.1726 168.848 62.1961C168.785 61.215 168.266 60.3043 167.566 59.633C166.861 58.9616 165.978 58.5345 165.114 58.5579C164.25 58.5814 163.409 59.0508 162.69 59.7221C161.967 60.3935 161.372 61.2619 161.258 62.2431C161.149 63.2289 161.526 64.3227 162.245 64.9377Z" fill="#EC5946"/>
<path d="M143.436 49.4356C144.159 50.0553 145.219 50.1867 146.256 50.1585C147.293 50.1304 148.302 49.9426 149.003 49.3276C149.708 48.7127 150.099 47.6705 150.04 46.694C149.976 45.7129 149.457 44.8022 148.757 44.1309C148.052 43.4596 147.17 43.0324 146.306 43.0559C145.442 43.0793 144.6 43.5488 143.882 44.2201C143.159 44.8914 142.563 45.7599 142.449 46.741C142.34 47.7268 142.718 48.8206 143.436 49.4356Z" fill="#EC5946"/>
<path d="M139.288 64.9377C140.011 65.5573 141.07 65.6888 142.107 65.6606C143.144 65.6325 144.154 65.4447 144.854 64.8297C145.559 64.2147 145.95 63.1726 145.891 62.1961C145.827 61.215 145.309 60.3043 144.609 59.633C143.904 58.9616 143.021 58.5345 142.157 58.5579C141.293 58.5814 140.452 59.0508 139.733 59.7221C139.01 60.3935 138.414 61.2619 138.301 62.2431C138.192 63.2289 138.569 64.3227 139.288 64.9377Z" fill="#EC5946"/>
<path d="M175.886 14.6984C176.609 15.3181 177.668 15.4495 178.705 15.4214C179.742 15.3932 180.752 15.2054 181.452 14.5904C182.157 13.9755 182.548 12.9333 182.489 11.9569C182.426 10.9757 181.907 10.065 181.207 9.3937C180.502 8.72239 179.619 8.2952 178.755 8.31867C177.891 8.34214 177.05 8.81159 176.331 9.48289C175.608 10.1542 175.013 11.0227 174.899 12.0038C174.79 12.9896 175.167 14.0834 175.886 14.6984Z" fill="#EC5946"/>
<path d="M124.189 54.1003C124.912 54.7199 125.972 54.8514 127.008 54.8232C128.045 54.7951 129.055 54.6073 129.755 53.9923C130.46 53.3773 130.851 52.3352 130.792 51.3587C130.729 50.3776 130.21 49.4669 129.51 48.7956C128.805 48.1242 127.923 47.6971 127.058 47.7205C126.194 47.744 125.353 48.2134 124.634 48.8847C123.911 49.5561 123.316 50.4245 123.202 51.4057C123.093 52.3915 123.47 53.4853 124.189 54.1003Z" fill="#EC5946"/>
<path d="M126.645 35.659C127.368 36.2787 128.427 36.4101 129.464 36.3819C130.501 36.3538 131.511 36.166 132.211 35.551C132.916 34.936 133.307 33.8939 133.248 32.9174C133.185 31.9363 132.666 31.0256 131.966 30.3543C131.261 29.683 130.379 29.2558 129.514 29.2792C128.65 29.3027 127.809 29.7722 127.09 30.4435C126.367 31.1148 125.772 31.9832 125.658 32.9644C125.549 33.9502 125.926 35.044 126.645 35.659Z" fill="#EC5946"/>
<path d="M118.992 21.6854C119.716 22.305 120.775 22.4365 121.812 22.4083C122.849 22.3801 123.859 22.1924 124.559 21.5774C125.264 20.9624 125.655 19.9202 125.596 18.9438C125.532 17.9627 125.014 17.0519 124.313 16.3806C123.608 15.7093 122.726 15.2821 121.862 15.3056C120.998 15.3291 120.157 15.7985 119.438 16.4698C118.715 17.1411 118.119 18.0096 118.006 18.9907C117.896 19.9766 118.274 21.0704 118.992 21.6854Z" fill="#EC5946"/>
<path d="M145.745 30.3357C146.468 30.9554 147.527 31.0869 148.564 31.0587C149.601 31.0305 150.611 30.8427 151.311 30.2278C152.016 29.6128 152.407 28.5706 152.348 27.5942C152.284 26.6131 151.766 25.7023 151.066 25.031C150.361 24.3597 149.478 23.9325 148.614 23.956C147.75 23.9795 146.909 24.4489 146.19 25.1202C145.467 25.7915 144.871 26.66 144.758 27.6411C144.649 28.627 145.026 29.7208 145.745 30.3357Z" fill="#EC5946"/>
<path d="M135.628 14.6984C136.351 15.3181 137.411 15.4495 138.448 15.4214C139.484 15.3932 140.494 15.2054 141.194 14.5904C141.899 13.9755 142.29 12.9333 142.231 11.9569C142.168 10.9757 141.649 10.065 140.949 9.3937C140.244 8.72239 139.362 8.2952 138.498 8.31867C137.633 8.34214 136.792 8.81159 136.074 9.48289C135.35 10.1542 134.755 11.0227 134.641 12.0038C134.532 12.9896 134.909 14.0834 135.628 14.6984Z" fill="#EC5946"/>
<path fill-rule="evenodd" clip-rule="evenodd" d="M34 39.087C38.0853 41.0945 41.6813 43.6628 44.4767 46.994C50.6998 54.3622 52.9678 65.4467 50.7081 75.0897C49.0306 82.107 44.9541 88.3382 39.658 93.3223C46.8659 99.4886 55.1574 103.715 63.6595 103.939C72.689 104.177 81.9086 99.8519 89.2747 93.056C96.5934 86.2601 102.011 77.0406 102.676 67.1081C103.294 57.2232 99.2072 46.673 91.841 40.4474C84.5224 34.2218 73.9721 32.3209 63.1368 32.0357C52.4571 31.7547 41.5465 33.0433 34 39.087Z" fill="white"/>
<path d="M62.7284 42.6451C63.4053 43.2252 64.3973 43.3482 65.368 43.3219C66.3387 43.2955 67.2838 43.1197 67.9395 42.544C68.5994 41.9683 68.9655 40.9927 68.9102 40.0786C68.8506 39.1601 68.3652 38.3076 67.7096 37.6791C67.0497 37.0507 66.2237 36.6508 65.4148 36.6727C64.6059 36.6947 63.8183 37.1342 63.1456 37.7626C62.4687 38.3911 61.9109 39.2041 61.8045 40.1226C61.7023 41.0454 62.0557 42.0694 62.7284 42.6451Z" fill="#EC5946"/>
<path d="M73.3181 55.4147C73.995 55.9948 74.987 56.1179 75.9577 56.0915C76.9284 56.0652 77.8735 55.8894 78.5292 55.3137C79.1891 54.738 79.5552 53.7624 79.4999 52.8483C79.4403 51.9298 78.9549 51.0772 78.2993 50.4488C77.6394 49.8203 76.8134 49.4204 76.0045 49.4424C75.1956 49.4644 74.408 49.9038 73.7353 50.5323C73.0584 51.1607 72.5007 51.9737 72.3942 52.8922C72.292 53.8151 72.6454 54.839 73.3181 55.4147Z" fill="#EC5946"/>
<path d="M89.2027 63.8242C89.8797 64.4043 90.8716 64.5273 91.8423 64.501C92.813 64.4746 93.7582 64.2988 94.4138 63.7231C95.0737 63.1474 95.4399 62.1718 95.3845 61.2577C95.3249 60.3392 94.8396 59.4866 94.1839 58.8582C93.524 58.2298 92.6981 57.8298 91.8892 57.8518C91.0803 57.8738 90.2926 58.3133 89.62 58.9417C88.943 59.5701 88.3853 60.3831 88.2789 61.3016C88.1767 62.2245 88.53 63.2485 89.2027 63.8242Z" fill="#EC5946"/>
<path d="M69.8919 74.1025C70.5689 74.6826 71.5608 74.8056 72.5315 74.7793C73.5022 74.7529 74.4474 74.5771 75.103 74.0014C75.7629 73.4257 76.1291 72.4501 76.0737 71.536C76.0141 70.6175 75.5288 69.765 74.8731 69.1365C74.2132 68.5081 73.3873 68.1082 72.5784 68.1301C71.7695 68.1521 70.9818 68.5916 70.3092 69.22C69.6322 69.8485 69.0745 70.6615 68.9681 71.58C68.8659 72.5028 69.2193 73.5268 69.8919 74.1025Z" fill="#EC5946"/>
<path d="M85.4652 79.3979C86.1421 79.978 87.1341 80.101 88.1048 80.0747C89.0755 80.0483 90.0206 79.8725 90.6763 79.2968C91.3362 78.7211 91.7023 77.7455 91.647 76.8314C91.5874 75.9129 91.102 75.0604 90.4464 74.4319C89.7865 73.8035 88.9605 73.4036 88.1516 73.4255C87.3427 73.4475 86.5551 73.887 85.8824 74.5154C85.2055 75.1439 84.6477 75.9569 84.5413 76.8754C84.4391 77.7982 84.7925 78.8222 85.4652 79.3979Z" fill="#EC5946"/>
<path d="M71.1379 92.7907C71.8148 93.3708 72.8068 93.4939 73.7775 93.4675C74.7482 93.4411 75.6934 93.2653 76.349 92.6896C77.0089 92.1139 77.3751 91.1383 77.3197 90.2242C77.2601 89.3058 76.7748 88.4532 76.1191 87.8247C75.4592 87.1963 74.6333 86.7964 73.8243 86.8184C73.0154 86.8403 72.2278 87.2798 71.5551 87.9082C70.8782 88.5367 70.3205 89.3497 70.214 90.2682C70.1119 91.1911 70.4652 92.215 71.1379 92.7907Z" fill="#EC5946"/>
<path d="M55.7614 78.9716C56.4384 79.5517 57.4304 79.6748 58.4011 79.6484C59.3717 79.622 60.3169 79.4463 60.9725 78.8706C61.6324 78.2949 61.9986 77.3192 61.9432 76.4051C61.8836 75.4867 61.3983 74.6341 60.7426 74.0057C60.0827 73.3772 59.2568 72.9773 58.4479 72.9993C57.639 73.0212 56.8513 73.4607 56.1787 74.0892C55.5017 74.7176 54.944 75.5306 54.8376 76.4491C54.7354 77.372 55.0888 78.3959 55.7614 78.9716Z" fill="#EC5946"/>
<path d="M49.6468 92.7907C50.3237 93.3708 51.3157 93.4939 52.2864 93.4675C53.2571 93.4411 54.2023 93.2653 54.8579 92.6896C55.5178 92.1139 55.884 91.1383 55.8286 90.2242C55.769 89.3058 55.2837 88.4532 54.628 87.8247C53.9681 87.1963 53.1422 86.7964 52.3333 86.8184C51.5243 86.8403 50.7367 87.2798 50.064 87.9082C49.3871 88.5367 48.8294 89.3497 48.723 90.2682C48.6208 91.1911 48.9741 92.215 49.6468 92.7907Z" fill="#EC5946"/>
<path d="M83.9079 45.7601C84.5849 46.3402 85.5768 46.4632 86.5475 46.4369C87.5182 46.4105 88.4634 46.2347 89.119 45.659C89.7789 45.0833 90.1451 44.1077 90.0897 43.1936C90.0301 42.2751 89.5448 41.4225 88.8891 40.7941C88.2292 40.1657 87.4033 39.7658 86.5944 39.7877C85.7855 39.8097 84.9978 40.2492 84.3252 40.8776C83.6482 41.506 83.0905 42.3191 82.9841 43.2375C82.8819 44.1604 83.2353 45.1844 83.9079 45.7601Z" fill="#EC5946"/>
<path d="M56.3844 60.3989C57.0613 60.979 58.0533 61.102 59.024 61.0757C59.9947 61.0493 60.9398 60.8735 61.5955 60.2978C62.2554 59.7221 62.6215 58.7465 62.5662 57.8324C62.5066 56.9139 62.0212 56.0613 61.3656 55.4329C60.7057 54.8045 59.8797 54.4045 59.0708 54.4265C58.2619 54.4485 57.4743 54.888 56.8016 55.5164C56.1247 56.1448 55.5669 56.9579 55.4605 57.8763C55.3583 58.7992 55.7117 59.8232 56.3844 60.3989Z" fill="#EC5946"/>
<path d="M46.2207 45.7601C46.8976 46.3402 47.8896 46.4632 48.8603 46.4369C49.831 46.4105 50.7761 46.2347 51.4318 45.659C52.0917 45.0833 52.4578 44.1077 52.4025 43.1936C52.3429 42.2751 51.8575 41.4225 51.2019 40.7941C50.542 40.1657 49.716 39.7658 48.9071 39.7877C48.0982 39.8097 47.3106 40.2492 46.6379 40.8776C45.961 41.506 45.4032 42.3191 45.2968 43.2375C45.1946 44.1604 45.548 45.1844 46.2207 45.7601Z" fill="#EC5946"/>
<path d="M26 68.3093C16.3333 66.3093 0 64.3095 0 68.3093C0 71.8088 16.4999 70.8096 26 68.3093Z" fill="#191D53"/>
<path d="M27.0429 55.7487C20.8337 50.1445 9.73906 41.7199 7.99038 44.7487C6.4604 47.3987 18.9882 53.6227 27.0429 55.7487Z" fill="#191D53"/>
<path d="M28.0429 80.7152C21.8337 86.3194 10.7391 94.744 8.99038 91.7152C7.4604 89.0652 19.9882 82.8411 28.0429 80.7152Z" fill="#191D53"/>
</svg>
