<svg width="555" height="555" viewBox="0 0 555 555" fill="none" xmlns="http://www.w3.org/2000/svg">
<path d="M444.867 38.1561C495.164 88.453 444.867 220.266 333 333C221.133 445.734 88.4531 495.164 38.1562 444.867C-36.4219 370.289 109.266 333.867 221.133 221.133C333 108.398 370.289 -37.2892 444.867 38.1561" fill="#D9A559"/>
<path d="M235.875 235.875C343.406 127.477 381.562 -10.4062 450.07 44.2266C448.336 41.6251 446.601 39.8907 444.867 37.2892C370.289 -37.289 333.867 108.399 221.133 220.266C108.398 333 -37.2892 369.422 38.1561 444C39.8905 445.734 42.492 447.469 45.0936 449.203C-10.4064 381.563 127.476 343.406 235.875 235.875" fill="#FBBF67"/>
<path d="M473.485 45.0939C523.782 95.3908 456.141 221.133 336.469 340.805C216.797 460.477 90.1878 528.985 39.8909 478.688C-18.2107 420.586 130.078 374.625 249.75 254.953C370.289 135.281 415.383 -13.0077 473.485 45.0939Z" fill="#C94747"/>
<path d="M518.579 111.867C568.008 161.297 517.711 293.109 404.977 405.844C292.243 518.578 161.297 568.008 111.868 518.578C62.438 469.148 189.915 414.516 302.649 302.648C414.516 189.914 468.282 61.5702 518.579 111.867" fill="#FBBF67"/>
<g opacity="0.5">
<path opacity="0.5" d="M472.618 108.399C478.688 104.93 483.891 101.461 489.961 100.594C492.563 77.1798 487.36 58.1016 474.352 44.2266C463.078 32.9532 451.805 29.4844 440.532 32.086C470.883 52.0313 478.688 78.9141 472.618 108.399" fill="#3E4347"/>
<path opacity="0.5" d="M114.469 463.945C42.4926 489.094 30.352 437.063 30.352 437.063C24.2817 450.938 26.0161 464.813 39.8911 478.688C54.6333 493.43 75.4458 497.766 100.594 494.297C100.594 484.758 105.797 475.219 114.469 463.945" fill="#3E4347"/>
</g>
<path d="M378.961 378.961C215.93 541.992 117.07 517.711 108.398 515.109C109.266 516.844 111 517.711 111.867 519.445C161.297 568.875 293.109 518.578 405.844 405.844C511.641 299.18 562.805 176.039 525.516 120.539C537.656 167.367 510.773 246.281 378.961 378.961Z" fill="#D9A559"/>
<path opacity="0.5" d="M124.875 389.368C143.953 393.704 158.695 401.508 156.961 405.844C155.227 411.047 138.75 411.047 119.672 406.711C100.594 402.375 85.8516 394.571 87.586 390.235C88.4532 385.032 104.93 385.032 124.875 389.368" fill="#3E4347"/>
<path opacity="0.5" d="M175.172 352.945C194.25 357.281 208.993 365.086 207.258 369.422C205.524 373.758 189.047 374.625 169.969 369.422C150.891 365.086 136.149 357.281 137.883 352.945C139.618 348.609 156.094 348.609 175.172 352.945Z" fill="#3E4347"/>
<path opacity="0.5" d="M233.274 309.586C252.352 313.922 267.094 321.727 265.359 326.062C263.625 330.398 247.149 331.266 228.07 326.93C208.992 322.594 194.25 314.789 195.984 310.453C197.719 305.25 214.195 305.25 233.274 309.586Z" fill="#3E4347"/>
<path opacity="0.5" d="M284.438 258.422C303.516 262.758 318.258 270.563 316.524 274.899C314.789 280.102 298.313 280.102 279.235 275.766C260.156 271.43 245.414 263.625 247.149 259.289C248.883 254.953 265.36 254.086 284.438 258.422" fill="#3E4347"/>
<path opacity="0.5" d="M342.539 200.32C361.617 204.656 376.359 212.461 374.625 216.797C372.89 221.133 356.414 222 337.336 217.664C318.258 213.328 303.515 205.524 305.25 201.188C306.117 195.984 323.461 195.984 342.539 200.32Z" fill="#3E4347"/>
<path opacity="0.5" d="M393.703 135.281C412.781 139.617 427.523 147.422 425.789 151.758C424.055 156.094 407.578 156.961 388.5 152.625C369.422 148.289 354.68 140.484 356.414 136.149C357.281 130.945 373.758 130.945 393.703 135.281" fill="#3E4347"/>
<path d="M91.0548 451.804C97.9923 413.648 133.547 428.39 150.024 402.375C158.695 389.367 163.031 374.625 169.969 361.617C176.039 349.476 201.188 353.812 214.195 349.476C246.281 338.203 232.406 277.5 271.43 280.969C289.641 282.703 313.055 274.031 315.656 253.219C317.391 241.945 317.391 232.406 315.656 222C312.188 190.781 352.945 195.984 367.688 188.18C388.5 176.906 397.172 163.898 390.234 140.484C383.297 116.203 419.719 142.219 451.805 110.133C467.414 94.5233 456.141 67.6405 447.469 57.2342C434.461 42.492 424.055 58.9686 425.789 78.9139C426.656 92.7889 399.774 86.7186 388.5 86.7186C381.563 86.7186 372.024 88.453 366.82 93.6561C351.211 110.133 370.289 128.344 359.883 147.422C346.875 170.836 314.789 155.226 293.977 185.578C273.164 215.062 289.641 252.351 261.024 249.75C240.211 248.015 226.336 268.828 216.797 284.437C207.258 300.914 202.922 326.062 176.906 323.461C168.234 322.594 162.164 326.062 155.227 330.398C127.477 349.476 139.617 380.695 101.461 391.101C71.1094 398.906 65.0391 414.515 58.9688 444.867C58.1016 463.945 87.586 471.75 91.0548 451.804" fill="#FFCE31"/>
</svg>
