<svg width="26" height="26" viewBox="0 0 26 26" fill="none" xmlns="http://www.w3.org/2000/svg">
<path fill-rule="evenodd" clip-rule="evenodd" d="M8.33523 0.154623C9.66858 0.0939455 10.0946 0.0791016 13.4895 0.0791016H13.4855C16.8814 0.0791016 17.3059 0.0939455 18.6392 0.154623C19.97 0.215561 20.8789 0.426241 21.6757 0.735358C22.4987 1.05437 23.194 1.48146 23.8893 2.17678C24.5846 2.87158 25.0117 3.56898 25.332 4.39113C25.6393 5.18593 25.8503 6.09427 25.9128 7.42501C25.9727 8.75836 25.9883 9.1844 25.9883 12.5792C25.9883 15.9741 25.9727 16.3991 25.9128 17.7324C25.8503 19.0626 25.6393 19.9712 25.332 20.7663C25.0117 21.5882 24.5846 22.2856 23.8893 22.9804C23.1948 23.6757 22.4984 24.1038 21.6765 24.4231C20.8812 24.7322 19.9718 24.9429 18.6411 25.0038C17.3077 25.0645 16.883 25.0794 13.4879 25.0794C10.0933 25.0794 9.66754 25.0645 8.33419 25.0038C7.00371 24.9429 6.09511 24.7322 5.29978 24.4231C4.47816 24.1038 3.78076 23.6757 3.08622 22.9804C2.39116 22.2856 1.96407 21.5882 1.64454 20.766C1.33568 19.9712 1.125 19.0629 1.0638 17.7321C1.00339 16.3988 0.988281 15.9741 0.988281 12.5792C0.988281 9.1844 1.00391 8.7581 1.06354 7.42475C1.12344 6.09453 1.33438 5.18593 1.64428 4.39086C1.96459 3.56898 2.39168 2.87158 3.087 2.17678C3.7818 1.48172 4.4792 1.05463 5.30135 0.735358C6.09615 0.426241 7.00449 0.215561 8.33523 0.154623ZM13.0729 2.33158C12.8201 2.33147 12.5859 2.33137 12.3681 2.33171V2.32858C10.0384 2.33119 9.59153 2.34681 8.43839 2.39889C7.21963 2.45488 6.5579 2.65801 6.11727 2.82989C5.53393 3.05697 5.11726 3.32781 4.67976 3.76531C4.24225 4.20282 3.97089 4.61949 3.74433 5.20283C3.57323 5.64346 3.36959 6.30492 3.31386 7.52369C3.25396 8.84141 3.24198 9.23516 3.24198 12.5732C3.24198 15.9113 3.25396 16.3071 3.31386 17.6248C3.36933 18.8436 3.57323 19.5051 3.74433 19.9452C3.97142 20.5288 4.24225 20.9444 4.67976 21.3819C5.11726 21.8194 5.53393 22.0902 6.11727 22.3168C6.55816 22.4879 7.21963 22.6916 8.43839 22.7478C9.75611 22.8077 10.1517 22.8207 13.4895 22.8207C16.827 22.8207 17.2229 22.8077 18.5406 22.7478C19.7593 22.6921 20.4213 22.4889 20.8614 22.3171C21.445 22.0905 21.8604 21.8197 22.2979 21.3822C22.7354 20.9449 23.0068 20.5296 23.2333 19.9462C23.4044 19.5061 23.6081 18.8446 23.6638 17.6259C23.7237 16.3082 23.7367 15.9123 23.7367 12.5763C23.7367 9.24037 23.7237 8.84453 23.6638 7.52681C23.6083 6.30805 23.4044 5.64658 23.2333 5.20648C23.0062 4.62314 22.7354 4.20646 22.2979 3.76896C21.8607 3.33146 21.4448 3.06062 20.8614 2.83405C20.4208 2.66296 19.7593 2.45931 18.5406 2.40358C17.2226 2.34369 16.827 2.33171 13.4895 2.33171L13.0729 2.33158ZM18.6619 5.90667C18.6619 5.07827 19.3338 4.40717 20.162 4.40717V4.40665C20.9901 4.40665 21.662 5.07853 21.662 5.90667C21.662 6.7348 20.9901 7.40668 20.162 7.40668C19.3338 7.40668 18.6619 6.7348 18.6619 5.90667ZM7.07008 12.5792C7.07008 9.03414 9.94433 6.15989 13.4894 6.15989C17.0344 6.16002 19.9077 9.03422 19.9077 12.5792C19.9077 16.1243 17.0345 18.9973 13.4894 18.9973C9.94433 18.9973 7.07008 16.1243 7.07008 12.5792ZM17.6561 12.5792C17.6561 10.2779 15.7905 8.41252 13.4894 8.41252C11.1881 8.41252 9.32267 10.2779 9.32267 12.5792C9.32267 14.8803 11.1881 16.7459 13.4894 16.7459C15.7905 16.7459 17.6561 14.8803 17.6561 12.5792Z" fill="#191D53"/>
</svg>
