<svg viewBox="0 0 445 83" fill="none" xmlns="http://www.w3.org/2000/svg">
<path d="M11.3667 20.0765V78.6314H25.4896V58.3881H31.6736C46.6323 58.3881 54.4041 51.1106 54.4041 39.2323C54.4041 27.354 46.6323 20.0765 31.6736 20.0765H11.3667ZM31.6736 31.7038C37.3563 31.7038 40.7825 34.3806 40.7825 39.2323C40.7825 44.084 37.3563 46.6771 31.6736 46.6771H25.4896V31.7038H31.6736Z" fill="#EC5946"/>
<path d="M60.0906 49.3539C60.0906 67.4223 73.2107 80.4717 91.5956 80.4717C109.98 80.4717 123.101 67.4223 123.101 49.3539C123.101 31.2856 109.646 18.7381 91.5956 18.7381C73.7957 18.7381 60.0906 31.2856 60.0906 49.3539ZM75.0492 49.3539C75.0492 38.9814 81.651 31.7038 91.5956 31.7038C101.791 31.7038 108.058 38.9814 108.058 49.3539C108.058 59.7265 101.54 67.0041 91.5956 67.0041C81.651 67.0041 75.0492 59.7265 75.0492 49.3539Z" fill="#EC5946"/>
<path d="M146.189 6.85978C146.189 10.875 149.449 13.7191 153.543 13.7191C157.638 13.7191 160.897 10.875 160.897 6.85978C160.897 2.84459 157.638 0.000488281 153.543 0.000488281C149.449 0.000488281 146.189 2.84459 146.189 6.85978ZM130.646 32.7913H153.878L126.635 78.6314H173.6V66.4185H148.947L176.525 20.0765H130.646V32.7913Z" fill="#EC5946"/>
<path d="M216.73 20.0765L205.282 42.0764L193.916 20.0765H177.621L198.095 54.8748V78.6314H212.552V54.7912L233.026 20.0765H216.73Z" fill="#EC5946"/>
<path d="M295.905 53.4528L279.86 17.1487L263.982 53.4528L252.533 20.0765H235.736L261.057 82.0611L279.86 46.8444L298.746 82.0611L324.067 20.0765H307.27L295.905 53.4528Z" fill="#EC5946"/>
<path d="M330.621 20.0765V78.6314H345.246V53.0345L365.887 78.6314H383.018L358.032 47.5136L381.765 20.0765H365.135L345.246 43.1639V20.0765H330.621Z" fill="#EC5946"/>
<path d="M428.412 78.6314H444.457L413.704 16.3959L382.868 78.6314H398.913L404.344 67.3387H422.896L428.412 78.6314ZM413.704 41.6581L420.139 56.5478H407.186L413.704 41.6581Z" fill="#EC5946"/>
<path d="M0.238281 20.0765V78.6314H14.3612V58.3881H20.5452C35.5038 58.3881 43.2757 51.1106 43.2757 39.2323C43.2757 27.354 35.5038 20.0765 20.5452 20.0765H0.238281ZM20.5452 31.7038C26.2278 31.7038 29.6541 34.3806 29.6541 39.2323C29.6541 44.084 26.2278 46.6771 20.5452 46.6771H14.3612V31.7038H20.5452Z" fill="white"/>
<path d="M0.238281 20.0765V78.6314H14.3612V58.3881H20.5452C35.5038 58.3881 43.2757 51.1106 43.2757 39.2323C43.2757 27.354 35.5038 20.0765 20.5452 20.0765H0.238281ZM20.5452 31.7038C26.2278 31.7038 29.6541 34.3806 29.6541 39.2323C29.6541 44.084 26.2278 46.6771 20.5452 46.6771H14.3612V31.7038H20.5452Z" fill="white"/>
<path d="M0.238281 20.0765V78.6314H14.3612V58.3881H20.5452C35.5038 58.3881 43.2757 51.1106 43.2757 39.2323C43.2757 27.354 35.5038 20.0765 20.5452 20.0765H0.238281ZM20.5452 31.7038C26.2278 31.7038 29.6541 34.3806 29.6541 39.2323C29.6541 44.084 26.2278 46.6771 20.5452 46.6771H14.3612V31.7038H20.5452Z" fill="white"/>
<path d="M48.9622 49.3539C48.9622 67.4223 62.0823 80.4717 80.4672 80.4717C98.8521 80.4717 111.972 67.4223 111.972 49.3539C111.972 31.2856 98.5178 18.7381 80.4672 18.7381C62.6673 18.7381 48.9622 31.2856 48.9622 49.3539ZM63.9208 49.3539C63.9208 38.9814 70.5226 31.7038 80.4672 31.7038C90.6624 31.7038 96.93 38.9814 96.93 49.3539C96.93 59.7265 90.4117 67.0041 80.4672 67.0041C70.5226 67.0041 63.9208 59.7265 63.9208 49.3539Z" fill="white"/>
<path d="M48.9622 49.3539C48.9622 67.4223 62.0823 80.4717 80.4672 80.4717C98.8521 80.4717 111.972 67.4223 111.972 49.3539C111.972 31.2856 98.5178 18.7381 80.4672 18.7381C62.6673 18.7381 48.9622 31.2856 48.9622 49.3539ZM63.9208 49.3539C63.9208 38.9814 70.5226 31.7038 80.4672 31.7038C90.6624 31.7038 96.93 38.9814 96.93 49.3539C96.93 59.7265 90.4117 67.0041 80.4672 67.0041C70.5226 67.0041 63.9208 59.7265 63.9208 49.3539Z" fill="white"/>
<path d="M48.9622 49.3539C48.9622 67.4223 62.0823 80.4717 80.4672 80.4717C98.8521 80.4717 111.972 67.4223 111.972 49.3539C111.972 31.2856 98.5178 18.7381 80.4672 18.7381C62.6673 18.7381 48.9622 31.2856 48.9622 49.3539ZM63.9208 49.3539C63.9208 38.9814 70.5226 31.7038 80.4672 31.7038C90.6624 31.7038 96.93 38.9814 96.93 49.3539C96.93 59.7265 90.4117 67.0041 80.4672 67.0041C70.5226 67.0041 63.9208 59.7265 63.9208 49.3539Z" fill="white"/>
<path d="M135.061 6.85978C135.061 10.875 138.32 13.7191 142.415 13.7191C146.51 13.7191 149.769 10.875 149.769 6.85978C149.769 2.84459 146.51 0.000488281 142.415 0.000488281C138.32 0.000488281 135.061 2.84459 135.061 6.85978ZM119.517 32.7913H142.749L115.506 78.6314H162.471V66.4185H137.819L165.396 20.0765H119.517V32.7913Z" fill="white"/>
<path d="M135.061 6.85978C135.061 10.875 138.32 13.7191 142.415 13.7191C146.51 13.7191 149.769 10.875 149.769 6.85978C149.769 2.84459 146.51 0.000488281 142.415 0.000488281C138.32 0.000488281 135.061 2.84459 135.061 6.85978ZM119.517 32.7913H142.749L115.506 78.6314H162.471V66.4185H137.819L165.396 20.0765H119.517V32.7913Z" fill="white"/>
<path d="M135.061 6.85978C135.061 10.875 138.32 13.7191 142.415 13.7191C146.51 13.7191 149.769 10.875 149.769 6.85978C149.769 2.84459 146.51 0.000488281 142.415 0.000488281C138.32 0.000488281 135.061 2.84459 135.061 6.85978ZM119.517 32.7913H142.749L115.506 78.6314H162.471V66.4185H137.819L165.396 20.0765H119.517V32.7913Z" fill="white"/>
<path d="M205.602 20.0765L194.153 42.0764L182.788 20.0765H166.492L186.966 54.8748V78.6314H201.424V54.7912L221.898 20.0765H205.602Z" fill="white"/>
<path d="M205.602 20.0765L194.153 42.0764L182.788 20.0765H166.492L186.966 54.8748V78.6314H201.424V54.7912L221.898 20.0765H205.602Z" fill="white"/>
<path d="M205.602 20.0765L194.153 42.0764L182.788 20.0765H166.492L186.966 54.8748V78.6314H201.424V54.7912L221.898 20.0765H205.602Z" fill="white"/>
<path d="M284.776 53.4528L268.731 17.1487L252.854 53.4528L241.405 20.0765H224.608L249.929 82.0611L268.731 46.8444L287.618 82.0611L312.939 20.0765H296.142L284.776 53.4528Z" fill="white"/>
<path d="M284.776 53.4528L268.731 17.1487L252.854 53.4528L241.405 20.0765H224.608L249.929 82.0611L268.731 46.8444L287.618 82.0611L312.939 20.0765H296.142L284.776 53.4528Z" fill="white"/>
<path d="M284.776 53.4528L268.731 17.1487L252.854 53.4528L241.405 20.0765H224.608L249.929 82.0611L268.731 46.8444L287.618 82.0611L312.939 20.0765H296.142L284.776 53.4528Z" fill="white"/>
<path d="M319.493 20.0765V78.6314H334.117V53.0345L354.759 78.6314H371.89L346.903 47.5136L370.636 20.0765H354.006L334.117 43.1639V20.0765H319.493Z" fill="white"/>
<path d="M319.493 20.0765V78.6314H334.117V53.0345L354.759 78.6314H371.89L346.903 47.5136L370.636 20.0765H354.006L334.117 43.1639V20.0765H319.493Z" fill="white"/>
<path d="M319.493 20.0765V78.6314H334.117V53.0345L354.759 78.6314H371.89L346.903 47.5136L370.636 20.0765H354.006L334.117 43.1639V20.0765H319.493Z" fill="white"/>
<path d="M417.284 78.6314H433.329L402.576 16.3959L371.739 78.6314H387.784L393.216 67.3387H411.768L417.284 78.6314ZM402.576 41.6581L409.01 56.5478H396.057L402.576 41.6581Z" fill="white"/>
<path d="M417.284 78.6314H433.329L402.576 16.3959L371.739 78.6314H387.784L393.216 67.3387H411.768L417.284 78.6314ZM402.576 41.6581L409.01 56.5478H396.057L402.576 41.6581Z" fill="white"/>
<path d="M417.284 78.6314H433.329L402.576 16.3959L371.739 78.6314H387.784L393.216 67.3387H411.768L417.284 78.6314ZM402.576 41.6581L409.01 56.5478H396.057L402.576 41.6581Z" fill="white"/>
</svg>
