<svg viewBox="0 0 237 61" fill="none" xmlns="http://www.w3.org/2000/svg">
<path d="M6.56201 11.11V42.138H14.0457V31.4112H17.3226C25.2491 31.4112 29.3674 27.5549 29.3674 21.2606C29.3674 14.9663 25.2491 11.11 17.3226 11.11H6.56201ZM17.3226 17.2713C20.3338 17.2713 22.1494 18.6897 22.1494 21.2606C22.1494 23.8315 20.3338 25.2056 17.3226 25.2056H14.0457V17.2713H17.3226Z" fill="#EC5946"/>
<path d="M32.3806 26.624C32.3806 36.1984 39.3329 43.1132 49.075 43.1132C58.8171 43.1132 65.7694 36.1984 65.7694 26.624C65.7694 17.0496 58.64 10.4008 49.075 10.4008C39.6429 10.4008 32.3806 17.0496 32.3806 26.624ZM40.3071 26.624C40.3071 21.1276 43.8054 17.2713 49.075 17.2713C54.4774 17.2713 57.7986 21.1276 57.7986 26.624C57.7986 32.1204 54.3446 35.9768 49.075 35.9768C43.8054 35.9768 40.3071 32.1204 40.3071 26.624Z" fill="#EC5946"/>
<path d="M78.0041 4.10652C78.0041 6.23415 79.7311 7.74123 81.9009 7.74123C84.0708 7.74123 85.7978 6.23415 85.7978 4.10652C85.7978 1.97888 84.0708 0.471802 81.9009 0.471802C79.7311 0.471802 78.0041 1.97888 78.0041 4.10652ZM69.7676 17.8475H82.0781L67.6421 42.138H92.5287V35.6665H79.4654L94.0785 11.11H69.7676V17.8475Z" fill="#EC5946"/>
<path d="M115.383 11.11L109.317 22.7677L103.294 11.11H94.6594L105.509 29.5495V42.138H113.169V29.5052L124.018 11.11H115.383Z" fill="#EC5946"/>
<path d="M157.338 28.796L148.836 9.55859L140.422 28.796L134.355 11.11H125.455L138.872 43.9554L148.836 25.2942L158.843 43.9554L172.261 11.11H163.36L157.338 28.796Z" fill="#EC5946"/>
<path d="M175.734 11.11V42.138H183.483V28.5743L194.421 42.138H203.499L190.258 25.6488L202.835 11.11H194.022L183.483 23.3439V11.11H175.734Z" fill="#EC5946"/>
<path d="M227.553 42.138H236.055L219.759 9.15966L203.419 42.138H211.921L214.799 36.1541H224.63L227.553 42.138ZM219.759 22.546L223.169 30.436H216.305L219.759 22.546Z" fill="#EC5946"/>
<path d="M0.665039 11.11V42.138H8.14873V31.4112H11.4256C19.3521 31.4112 23.4704 27.5549 23.4704 21.2606C23.4704 14.9663 19.3521 11.11 11.4256 11.11H0.665039ZM11.4256 17.2713C14.4368 17.2713 16.2524 18.6897 16.2524 21.2606C16.2524 23.8315 14.4368 25.2056 11.4256 25.2056H8.14873V17.2713H11.4256Z" fill="white"/>
<path d="M0.665039 11.11V42.138H8.14873V31.4112H11.4256C19.3521 31.4112 23.4704 27.5549 23.4704 21.2606C23.4704 14.9663 19.3521 11.11 11.4256 11.11H0.665039ZM11.4256 17.2713C14.4368 17.2713 16.2524 18.6897 16.2524 21.2606C16.2524 23.8315 14.4368 25.2056 11.4256 25.2056H8.14873V17.2713H11.4256Z" fill="white"/>
<path d="M0.665039 11.11V42.138H8.14873V31.4112H11.4256C19.3521 31.4112 23.4704 27.5549 23.4704 21.2606C23.4704 14.9663 19.3521 11.11 11.4256 11.11H0.665039ZM11.4256 17.2713C14.4368 17.2713 16.2524 18.6897 16.2524 21.2606C16.2524 23.8315 14.4368 25.2056 11.4256 25.2056H8.14873V17.2713H11.4256Z" fill="white"/>
<path d="M26.4836 26.624C26.4836 36.1984 33.4359 43.1132 43.178 43.1132C52.9201 43.1132 59.8724 36.1984 59.8724 26.624C59.8724 17.0496 52.743 10.4008 43.178 10.4008C33.7459 10.4008 26.4836 17.0496 26.4836 26.624ZM34.4102 26.624C34.4102 21.1276 37.9085 17.2713 43.178 17.2713C48.5805 17.2713 51.9016 21.1276 51.9016 26.624C51.9016 32.1204 48.4476 35.9768 43.178 35.9768C37.9085 35.9768 34.4102 32.1204 34.4102 26.624Z" fill="white"/>
<path d="M26.4836 26.624C26.4836 36.1984 33.4359 43.1132 43.178 43.1132C52.9201 43.1132 59.8724 36.1984 59.8724 26.624C59.8724 17.0496 52.743 10.4008 43.178 10.4008C33.7459 10.4008 26.4836 17.0496 26.4836 26.624ZM34.4102 26.624C34.4102 21.1276 37.9085 17.2713 43.178 17.2713C48.5805 17.2713 51.9016 21.1276 51.9016 26.624C51.9016 32.1204 48.4476 35.9768 43.178 35.9768C37.9085 35.9768 34.4102 32.1204 34.4102 26.624Z" fill="white"/>
<path d="M26.4836 26.624C26.4836 36.1984 33.4359 43.1132 43.178 43.1132C52.9201 43.1132 59.8724 36.1984 59.8724 26.624C59.8724 17.0496 52.743 10.4008 43.178 10.4008C33.7459 10.4008 26.4836 17.0496 26.4836 26.624ZM34.4102 26.624C34.4102 21.1276 37.9085 17.2713 43.178 17.2713C48.5805 17.2713 51.9016 21.1276 51.9016 26.624C51.9016 32.1204 48.4476 35.9768 43.178 35.9768C37.9085 35.9768 34.4102 32.1204 34.4102 26.624Z" fill="white"/>
<path d="M72.1071 4.10652C72.1071 6.23415 73.8341 7.74123 76.004 7.74123C78.1738 7.74123 79.9008 6.23415 79.9008 4.10652C79.9008 1.97888 78.1738 0.471802 76.004 0.471802C73.8341 0.471802 72.1071 1.97888 72.1071 4.10652ZM63.8706 17.8475H76.1811L61.7451 42.138H86.6317V35.6665H73.5684L88.1816 11.11H63.8706V17.8475Z" fill="white"/>
<path d="M72.1071 4.10652C72.1071 6.23415 73.8341 7.74123 76.004 7.74123C78.1738 7.74123 79.9008 6.23415 79.9008 4.10652C79.9008 1.97888 78.1738 0.471802 76.004 0.471802C73.8341 0.471802 72.1071 1.97888 72.1071 4.10652ZM63.8706 17.8475H76.1811L61.7451 42.138H86.6317V35.6665H73.5684L88.1816 11.11H63.8706V17.8475Z" fill="white"/>
<path d="M72.1071 4.10652C72.1071 6.23415 73.8341 7.74123 76.004 7.74123C78.1738 7.74123 79.9008 6.23415 79.9008 4.10652C79.9008 1.97888 78.1738 0.471802 76.004 0.471802C73.8341 0.471802 72.1071 1.97888 72.1071 4.10652ZM63.8706 17.8475H76.1811L61.7451 42.138H86.6317V35.6665H73.5684L88.1816 11.11H63.8706V17.8475Z" fill="white"/>
<path d="M109.486 11.11L103.42 22.7677L97.3974 11.11H88.7624L99.6116 29.5495V42.138H107.272V29.5052L118.122 11.11H109.486Z" fill="white"/>
<path d="M109.486 11.11L103.42 22.7677L97.3974 11.11H88.7624L99.6116 29.5495V42.138H107.272V29.5052L118.122 11.11H109.486Z" fill="white"/>
<path d="M109.486 11.11L103.42 22.7677L97.3974 11.11H88.7624L99.6116 29.5495V42.138H107.272V29.5052L118.122 11.11H109.486Z" fill="white"/>
<path d="M151.441 28.796L142.939 9.55859L134.525 28.796L128.458 11.11H119.558L132.975 43.9554L142.939 25.2942L152.946 43.9554L166.364 11.11H157.463L151.441 28.796Z" fill="white"/>
<path d="M151.441 28.796L142.939 9.55859L134.525 28.796L128.458 11.11H119.558L132.975 43.9554L142.939 25.2942L152.946 43.9554L166.364 11.11H157.463L151.441 28.796Z" fill="white"/>
<path d="M151.441 28.796L142.939 9.55859L134.525 28.796L128.458 11.11H119.558L132.975 43.9554L142.939 25.2942L152.946 43.9554L166.364 11.11H157.463L151.441 28.796Z" fill="white"/>
<path d="M169.837 11.11V42.138H177.586V28.5743L188.524 42.138H197.602L184.361 25.6488L196.938 11.11H188.125L177.586 23.3439V11.11H169.837Z" fill="white"/>
<path d="M169.837 11.11V42.138H177.586V28.5743L188.524 42.138H197.602L184.361 25.6488L196.938 11.11H188.125L177.586 23.3439V11.11H169.837Z" fill="white"/>
<path d="M169.837 11.11V42.138H177.586V28.5743L188.524 42.138H197.602L184.361 25.6488L196.938 11.11H188.125L177.586 23.3439V11.11H169.837Z" fill="white"/>
<path d="M221.656 42.138H230.158L213.862 9.15966L197.522 42.138H206.024L208.902 36.1541H218.733L221.656 42.138ZM213.862 22.546L217.272 30.436H210.408L213.862 22.546Z" fill="white"/>
<path d="M221.656 42.138H230.158L213.862 9.15966L197.522 42.138H206.024L208.902 36.1541H218.733L221.656 42.138ZM213.862 22.546L217.272 30.436H210.408L213.862 22.546Z" fill="white"/>
<path d="M221.656 42.138H230.158L213.862 9.15966L197.522 42.138H206.024L208.902 36.1541H218.733L221.656 42.138ZM213.862 22.546L217.272 30.436H210.408L213.862 22.546Z" fill="white"/>
<path d="M29.2889 57.4812L28.4387 58.2755V60.7294H27.4043V51.2969H28.5663V51.3962C28.5096 51.4529 28.4718 51.5144 28.4529 51.5806C28.4435 51.6468 28.4387 51.7602 28.4387 51.921V57.2259L31.6837 54.2188C31.9199 54.2661 32.1702 54.2898 32.4348 54.2898H32.8032L30.0825 56.8571L33.2566 60.7294L31.9388 60.7861L29.2889 57.4812Z" fill="#EC5946"/>
<path d="M36.7213 60.8854C36.0411 60.8854 35.4979 60.6348 35.0917 60.1337C34.6855 59.623 34.4871 58.8665 34.4965 57.8642L34.5107 54.2472H35.5026V57.8642C35.5026 58.6396 35.6349 59.2022 35.8994 59.5521C36.1734 59.8925 36.5323 60.0627 36.9763 60.0627C37.4676 60.0627 37.8785 59.8736 38.2092 59.4954C38.5492 59.1077 38.7193 58.5498 38.7193 57.8216V54.2472H39.7112V59.7223C39.7112 59.9493 39.7159 60.1384 39.7254 60.2897C39.7443 60.4315 39.7868 60.5781 39.8529 60.7294H38.8752C38.809 60.5876 38.7665 60.441 38.7476 60.2897C38.7382 60.1384 38.7335 59.954 38.7335 59.7365C38.5256 60.0958 38.2422 60.3795 37.8832 60.5876C37.5337 60.7861 37.1464 60.8854 36.7213 60.8854Z" fill="#EC5946"/>
<path d="M41.8297 60.7294V59.9067H43.7427V52.1196H41.9147V51.2969H44.7771V59.9067H46.6759V60.7294H41.8297Z" fill="#EC5946"/>
<path d="M54.1224 60.1337C53.4989 60.597 52.814 60.8287 52.0677 60.8287C51.3498 60.8287 50.8396 60.6112 50.5373 60.1762C50.2445 59.7412 50.098 59.032 50.098 58.0486C50.098 57.8878 50.1075 57.6089 50.1264 57.2117L50.2539 55.0841H48.8227V54.2472H50.3106L50.4098 52.5167L51.5434 52.3323L51.6851 52.3181L51.6993 52.4032C51.6332 52.4978 51.5812 52.5782 51.5434 52.6444C51.5151 52.7106 51.4962 52.8146 51.4867 52.9564L51.3309 54.2472H53.4847V55.0841H51.2742L51.1466 57.2826C51.1278 57.6609 51.1183 57.9115 51.1183 58.0344C51.1183 58.7909 51.2033 59.3062 51.3734 59.5805C51.5529 59.8452 51.8363 59.9776 52.2236 59.9776C52.507 59.9776 52.7668 59.9256 53.003 59.8216C53.2391 59.7176 53.5084 59.5521 53.8107 59.3252L54.1224 60.1337Z" fill="#EC5946"/>
<path d="M58.083 60.8854C57.4028 60.8854 56.8596 60.6348 56.4534 60.1337C56.0472 59.623 55.8488 58.8665 55.8583 57.8642L55.8724 54.2472H56.8644V57.8642C56.8644 58.6396 56.9966 59.2022 57.2611 59.5521C57.5351 59.8925 57.8941 60.0627 58.3381 60.0627C58.8293 60.0627 59.2403 59.8736 59.5709 59.4954C59.911 59.1077 60.081 58.5498 60.081 57.8216V54.2472H61.0729V59.7223C61.0729 59.9493 61.0777 60.1384 61.0871 60.2897C61.106 60.4315 61.1485 60.5781 61.2147 60.7294H60.2369C60.1708 60.5876 60.1283 60.441 60.1094 60.2897C60.0999 60.1384 60.0952 59.954 60.0952 59.7365C59.8874 60.0958 59.604 60.3795 59.245 60.5876C58.8954 60.7861 58.5081 60.8854 58.083 60.8854Z" fill="#EC5946"/>
<path d="M68.1085 55.5947V55.6089C67.8345 55.3536 67.6031 55.1834 67.4142 55.0983C67.2347 55.0131 67.0221 54.9706 66.7765 54.9706C66.4364 54.9706 66.1152 55.0557 65.8129 55.2259C65.5106 55.3961 65.265 55.6562 65.0761 56.006C64.8871 56.3465 64.7927 56.7767 64.7927 57.2968V60.7436H63.7582V54.2472H64.821L64.7927 55.4387C64.9721 55.0131 65.2461 54.6822 65.6145 54.4458C65.9924 54.2094 66.4033 54.0912 66.8474 54.0912C67.537 54.0912 68.1085 54.3276 68.562 54.8004L68.1085 55.5947ZM68.1085 55.6089C68.1746 55.6656 68.1888 55.6893 68.151 55.6798C68.1227 55.6704 68.0991 55.6609 68.0802 55.6514L68.1085 55.6089ZM67.9526 55.6514C67.9526 55.6231 67.9668 55.6136 67.9951 55.6231C68.0235 55.6231 68.0518 55.6325 68.0802 55.6514L68.0518 55.7224L67.9526 55.6656V55.6514Z" fill="#EC5946"/>
<path d="M72.6501 54.1054C73.5759 54.1054 74.2797 54.3465 74.7615 54.8288C75.2527 55.311 75.4983 56.129 75.4983 57.2826V60.7294H74.393V59.7365C73.9963 60.5025 73.2594 60.8854 72.1825 60.8854C71.4645 60.8854 70.9024 60.7247 70.4962 60.4032C70.09 60.0722 69.8869 59.6372 69.8869 59.0982C69.8869 58.6443 70.0333 58.2472 70.3262 57.9067C70.619 57.5663 71.0111 57.3063 71.5023 57.1266C72.003 56.9375 72.5509 56.8429 73.146 56.8429C73.6845 56.8429 74.171 56.8713 74.6056 56.928C74.5489 56.1999 74.3553 55.6893 74.0246 55.3961C73.7034 55.0935 73.2216 54.9422 72.5792 54.9422C72.258 54.9422 71.9463 55.0037 71.644 55.1266C71.3511 55.2496 71.0819 55.4292 70.8363 55.6656L70.3403 55.0131C70.9449 54.408 71.7149 54.1054 72.6501 54.1054ZM72.2817 60.1053C72.9807 60.1053 73.5334 59.902 73.9396 59.4954C74.3458 59.0793 74.5678 58.4836 74.6056 57.7082C74.1805 57.642 73.7223 57.6089 73.2311 57.6089C72.5131 57.6089 71.9463 57.7271 71.5306 57.9635C71.115 58.1999 70.9071 58.5592 70.9071 59.0415C70.9071 59.7507 71.3653 60.1053 72.2817 60.1053Z" fill="#EC5946"/>
<path d="M77.4326 60.7294V59.9067H79.3456V52.1196H77.5176V51.2969H80.38V59.9067H82.2788V60.7294H77.4326Z" fill="#EC5946"/>
<path d="M84.454 54.2472H85.4459V55.3961C85.7009 54.999 86.0221 54.6822 86.4095 54.4458C86.7968 54.2094 87.2077 54.0912 87.6423 54.0912C88.2185 54.0912 88.6767 54.3134 89.0168 54.7578C89.3663 55.1928 89.5411 55.8737 89.5411 56.8004V60.7294H88.5492V56.8287C88.5492 56.1857 88.4405 55.7176 88.2233 55.4245C88.006 55.1314 87.7179 54.9848 87.3589 54.9848C87.066 54.9848 86.7684 55.0699 86.4661 55.2401C86.1733 55.4103 85.9277 55.6514 85.7293 55.9635C85.5403 56.2661 85.4459 56.6112 85.4459 56.9989V60.7294H84.454V54.2472Z" fill="#EC5946"/>
<path d="M91.9713 60.7294V59.9067H93.6292V55.0699H92.0563V54.2472H94.6495V59.9067H96.1657V60.7294H91.9713ZM94.0827 52.8855C93.8843 52.8855 93.7143 52.8146 93.5726 52.6727C93.4308 52.5309 93.36 52.3607 93.36 52.1621C93.36 51.9541 93.4261 51.7791 93.5584 51.6373C93.7001 51.4955 93.8749 51.4245 94.0827 51.4245C94.2811 51.4245 94.4511 51.5002 94.5928 51.6515C94.744 51.7933 94.8195 51.9635 94.8195 52.1621C94.8195 52.3607 94.744 52.5309 94.5928 52.6727C94.4511 52.8146 94.2811 52.8855 94.0827 52.8855Z" fill="#EC5946"/>
<path d="M101.529 60.8712C100.566 60.8712 99.7957 60.5781 99.2194 59.9918C98.6526 59.4055 98.3692 58.5781 98.3692 57.5096C98.3692 56.8004 98.5015 56.1904 98.766 55.6798C99.0305 55.1597 99.3847 54.7673 99.8287 54.5025C100.282 54.2283 100.788 54.0912 101.345 54.0912C102.129 54.0912 102.762 54.3512 103.244 54.8713C103.735 55.3914 103.981 56.1573 103.981 57.1692C103.981 57.2732 103.971 57.4292 103.952 57.6372H99.347C99.3847 58.4316 99.6067 59.032 100.013 59.4386C100.419 59.8452 100.934 60.0486 101.558 60.0486C102.238 60.0486 102.795 59.8074 103.23 59.3252L103.796 59.8783C103.249 60.5403 102.493 60.8712 101.529 60.8712ZM102.946 56.8429C102.946 56.2377 102.79 55.7602 102.479 55.4103C102.176 55.051 101.775 54.8713 101.274 54.8713C100.802 54.8713 100.391 55.0368 100.041 55.3678C99.6918 55.6987 99.4745 56.1904 99.3895 56.8429H102.946Z" fill="#EC5946"/>
<path d="M115.459 60.8429C114.882 60.8429 114.367 60.701 113.914 60.4173C113.461 60.1337 113.106 59.7365 112.851 59.2259C112.596 58.7152 112.469 58.1337 112.469 57.4812C112.469 56.8287 112.596 56.2472 112.851 55.7365C113.106 55.2259 113.461 54.8288 113.914 54.5451C114.367 54.2519 114.882 54.1054 115.459 54.1054C116.035 54.1054 116.55 54.2519 117.003 54.5451C117.457 54.8288 117.811 55.2259 118.066 55.7365C118.321 56.2472 118.449 56.8287 118.449 57.4812C118.449 58.1337 118.321 58.7152 118.066 59.2259C117.811 59.7365 117.457 60.1337 117.003 60.4173C116.55 60.701 116.035 60.8429 115.459 60.8429ZM115.459 59.9918C115.827 59.9918 116.153 59.8831 116.436 59.6656C116.729 59.4481 116.956 59.1502 117.117 58.772C117.287 58.3843 117.372 57.9493 117.372 57.467C117.372 56.7294 117.192 56.129 116.833 55.6656C116.474 55.1928 116.016 54.9564 115.459 54.9564C114.901 54.9564 114.443 55.1928 114.084 55.6656C113.725 56.129 113.546 56.7294 113.546 57.467C113.546 57.9493 113.626 58.3843 113.786 58.772C113.957 59.1502 114.183 59.4481 114.467 59.6656C114.76 59.8831 115.09 59.9918 115.459 59.9918Z" fill="#EC5946"/>
<path d="M128.977 57.4812L128.127 58.2755V60.7294H127.092V51.2969H128.254V51.3962C128.198 51.4529 128.16 51.5144 128.141 51.5806C128.132 51.6468 128.127 51.7602 128.127 51.921V57.2259L131.372 54.2188C131.608 54.2661 131.858 54.2898 132.123 54.2898H132.491L129.771 56.8571L132.945 60.7294L131.627 60.7861L128.977 57.4812Z" fill="#EC5946"/>
<path d="M136.409 60.8854C135.729 60.8854 135.186 60.6348 134.78 60.1337C134.374 59.623 134.175 58.8665 134.185 57.8642L134.199 54.2472H135.191V57.8642C135.191 58.6396 135.323 59.2022 135.588 59.5521C135.861 59.8925 136.22 60.0627 136.664 60.0627C137.156 60.0627 137.567 59.8736 137.897 59.4954C138.237 59.1077 138.407 58.5498 138.407 57.8216V54.2472H139.399V59.7223C139.399 59.9493 139.404 60.1384 139.413 60.2897C139.432 60.4315 139.475 60.5781 139.541 60.7294H138.563C138.497 60.5876 138.455 60.441 138.436 60.2897C138.426 60.1384 138.422 59.954 138.422 59.7365C138.214 60.0958 137.93 60.3795 137.571 60.5876C137.222 60.7861 136.834 60.8854 136.409 60.8854Z" fill="#EC5946"/>
<path d="M141.518 60.7294V59.9067H143.431V52.1196H141.603V51.2969H144.465V59.9067H146.364V60.7294H141.518Z" fill="#EC5946"/>
<path d="M148.936 60.7294V59.9067H150.594V55.0699H149.021V54.2472H151.614V59.9067H153.13V60.7294H148.936ZM151.047 52.8855C150.849 52.8855 150.679 52.8146 150.537 52.6727C150.395 52.5309 150.325 52.3607 150.325 52.1621C150.325 51.9541 150.391 51.7791 150.523 51.6373C150.665 51.4955 150.839 51.4245 151.047 51.4245C151.246 51.4245 151.416 51.5002 151.557 51.6515C151.709 51.7933 151.784 51.9635 151.784 52.1621C151.784 52.3607 151.709 52.5309 151.557 52.6727C151.416 52.8146 151.246 52.8855 151.047 52.8855Z" fill="#EC5946"/>
<path d="M155.66 54.2472H156.652V55.3961C156.907 54.999 157.228 54.6822 157.615 54.4458C158.003 54.2094 158.414 54.0912 158.848 54.0912C159.424 54.0912 159.883 54.3134 160.223 54.7578C160.572 55.1928 160.747 55.8737 160.747 56.8004V60.7294H159.755V56.8287C159.755 56.1857 159.646 55.7176 159.429 55.4245C159.212 55.1314 158.924 54.9848 158.565 54.9848C158.272 54.9848 157.974 55.0699 157.672 55.2401C157.379 55.4103 157.133 55.6514 156.935 55.9635C156.746 56.2661 156.652 56.6112 156.652 56.9989V60.7294H155.66V54.2472Z" fill="#EC5946"/>
<path d="M165.218 54.1054C166.143 54.1054 166.847 54.3465 167.329 54.8288C167.82 55.311 168.066 56.129 168.066 57.2826V60.7294H166.961V59.7365C166.564 60.5025 165.827 60.8854 164.75 60.8854C164.032 60.8854 163.47 60.7247 163.064 60.4032C162.658 60.0722 162.454 59.6372 162.454 59.0982C162.454 58.6443 162.601 58.2472 162.894 57.9067C163.187 57.5663 163.579 57.3063 164.07 57.1266C164.571 56.9375 165.118 56.8429 165.714 56.8429C166.252 56.8429 166.739 56.8713 167.173 56.928C167.116 56.1999 166.923 55.6893 166.592 55.3961C166.271 55.0935 165.789 54.9422 165.147 54.9422C164.826 54.9422 164.514 55.0037 164.212 55.1266C163.919 55.2496 163.649 55.4292 163.404 55.6656L162.908 55.0131C163.512 54.408 164.282 54.1054 165.218 54.1054ZM164.849 60.1053C165.548 60.1053 166.101 59.902 166.507 59.4954C166.913 59.0793 167.135 58.4836 167.173 57.7082C166.748 57.642 166.29 57.6089 165.799 57.6089C165.081 57.6089 164.514 57.7271 164.098 57.9635C163.683 58.1999 163.475 58.5592 163.475 59.0415C163.475 59.7507 163.933 60.1053 164.849 60.1053Z" fill="#EC5946"/>
<path d="M174.917 55.5947V55.6089C174.643 55.3536 174.412 55.1834 174.223 55.0983C174.043 55.0131 173.831 54.9706 173.585 54.9706C173.245 54.9706 172.924 55.0557 172.622 55.2259C172.319 55.3961 172.074 55.6562 171.885 56.006C171.696 56.3465 171.601 56.7767 171.601 57.2968V60.7436H170.567V54.2472H171.63L171.601 55.4387C171.781 55.0131 172.055 54.6822 172.423 54.4458C172.801 54.2094 173.212 54.0912 173.656 54.0912C174.346 54.0912 174.917 54.3276 175.371 54.8004L174.917 55.5947ZM174.917 55.6089C174.983 55.6656 174.997 55.6893 174.96 55.6798C174.931 55.6704 174.908 55.6609 174.889 55.6514L174.917 55.6089ZM174.761 55.6514C174.761 55.6231 174.775 55.6136 174.804 55.6231C174.832 55.6231 174.861 55.6325 174.889 55.6514L174.861 55.7224L174.761 55.6656V55.6514Z" fill="#EC5946"/>
<path d="M177.418 60.7294V59.9067H179.076V55.0699H177.503V54.2472H180.096V59.9067H181.613V60.7294H177.418ZM179.53 52.8855C179.331 52.8855 179.161 52.8146 179.02 52.6727C178.878 52.5309 178.807 52.3607 178.807 52.1621C178.807 51.9541 178.873 51.7791 179.005 51.6373C179.147 51.4955 179.322 51.4245 179.53 51.4245C179.728 51.4245 179.898 51.5002 180.04 51.6515C180.191 51.7933 180.267 51.9635 180.267 52.1621C180.267 52.3607 180.191 52.5309 180.04 52.6727C179.898 52.8146 179.728 52.8855 179.53 52.8855Z" fill="#EC5946"/>
<path d="M186.579 54.1054C187.505 54.1054 188.209 54.3465 188.691 54.8288C189.182 55.311 189.428 56.129 189.428 57.2826V60.7294H188.322V59.7365C187.926 60.5025 187.189 60.8854 186.112 60.8854C185.394 60.8854 184.832 60.7247 184.425 60.4032C184.019 60.0722 183.816 59.6372 183.816 59.0982C183.816 58.6443 183.963 58.2472 184.255 57.9067C184.548 57.5663 184.94 57.3063 185.432 57.1266C185.932 56.9375 186.48 56.8429 187.075 56.8429C187.614 56.8429 188.1 56.8713 188.535 56.928C188.478 56.1999 188.285 55.6893 187.954 55.3961C187.633 55.0935 187.151 54.9422 186.509 54.9422C186.187 54.9422 185.876 55.0037 185.573 55.1266C185.28 55.2496 185.011 55.4292 184.766 55.6656L184.27 55.0131C184.874 54.408 185.644 54.1054 186.579 54.1054ZM186.211 60.1053C186.91 60.1053 187.463 59.902 187.869 59.4954C188.275 59.0793 188.497 58.4836 188.535 57.7082C188.11 57.642 187.652 57.6089 187.16 57.6089C186.442 57.6089 185.876 57.7271 185.46 57.9635C185.044 58.1999 184.836 58.5592 184.836 59.0415C184.836 59.7507 185.295 60.1053 186.211 60.1053Z" fill="#EC5946"/>
<path d="M194.338 59.9635C194.989 59.9635 195.552 59.6987 196.024 59.1691L196.619 59.8642C195.986 60.545 195.207 60.8854 194.281 60.8854C193.657 60.8854 193.1 60.7389 192.609 60.4457C192.118 60.1526 191.73 59.7507 191.447 59.2401C191.173 58.72 191.036 58.1384 191.036 57.4954C191.036 56.8524 191.173 56.2755 191.447 55.7649C191.73 55.2543 192.118 54.8524 192.609 54.5593C193.1 54.2661 193.653 54.1195 194.267 54.1195C194.786 54.1195 195.259 54.2283 195.684 54.4458C196.109 54.6538 196.454 54.947 196.718 55.3252L196.081 55.9493L196.066 55.9635C195.792 55.6042 195.509 55.3536 195.216 55.2117C194.933 55.0604 194.579 54.9848 194.153 54.9848C193.785 54.9848 193.44 55.0888 193.119 55.2968C192.807 55.4954 192.557 55.7791 192.368 56.1479C192.179 56.5167 192.085 56.9422 192.085 57.4245C192.085 57.9067 192.179 58.3417 192.368 58.7294C192.566 59.1171 192.836 59.4197 193.176 59.6372C193.525 59.8547 193.912 59.9635 194.338 59.9635ZM195.911 55.9777C195.911 55.9209 195.953 55.9257 196.038 55.9919L195.981 56.0486L195.911 55.9777ZM196.066 55.9635C196.114 56.0297 196.123 56.0533 196.095 56.0344C196.076 56.0155 196.057 56.0013 196.038 55.9919L196.066 55.9635Z" fill="#EC5946"/>
<path d="M198.397 51.2969H199.517V51.3962C199.46 51.4529 199.422 51.5144 199.404 51.5806C199.394 51.6468 199.389 51.7602 199.389 51.921V55.3961C199.644 54.999 199.961 54.6822 200.339 54.4458C200.726 54.2094 201.118 54.0912 201.515 54.0912C202.129 54.0912 202.611 54.3087 202.96 54.7436C203.31 55.1786 203.485 55.8642 203.485 56.8004V60.7294H202.493V56.8287C202.493 56.1857 202.384 55.7176 202.167 55.4245C201.949 55.1314 201.661 54.9848 201.302 54.9848C201 54.9848 200.702 55.0699 200.41 55.2401C200.117 55.4009 199.871 55.6373 199.673 55.9493C199.484 56.2519 199.389 56.6018 199.389 56.9989V60.7294H198.397V51.2969Z" fill="#EC5946"/>
</svg>
