<svg  viewBox="0 0 1319 498" fill="none" xmlns="http://www.w3.org/2000/svg">
<g clip-path="url(#clip0_702_2)">
<path d="M654.923 0C517.91 0 407 111.069 407 248.072C407 385.08 517.91 496.064 654.923 496.064C791.936 496.064 903 385.08 903 248.067C902.995 111.069 791.931 0 654.923 0ZM655.037 337.354C605.728 337.354 565.746 297.376 565.746 248.062C565.746 198.748 605.728 158.77 655.037 158.77C704.351 158.77 744.329 198.748 744.329 248.062C744.329 297.376 704.351 337.354 655.037 337.354Z" fill="#FCCCDC"/>
<path d="M868.643 184.119C853.041 170.324 840.233 141.884 840.069 120.99C839.915 100.096 822.97 80.3973 802.502 77.2771C781.965 74.1469 755.907 57.2609 744.567 39.7349C733.187 22.2089 708.448 14.8672 689.484 23.4491C670.549 31.9913 639.555 31.9913 620.615 23.4491C601.681 14.8672 576.892 22.2089 565.547 39.7349C554.207 57.2609 528.129 74.1518 507.597 77.2771C487.09 80.4023 470.179 100.096 470.02 120.99C469.861 141.884 456.993 170.324 441.412 184.119C425.831 197.955 422.155 223.75 433.237 241.395C444.354 259.08 448.769 290.004 443.064 310.14C437.354 330.23 448.094 353.892 466.915 362.757C485.716 371.582 506.024 395.205 512.012 415.221C517.999 435.232 539.742 449.315 560.289 446.508C580.836 443.7 610.58 452.485 626.375 466.077C642.149 479.63 667.97 479.63 683.739 466.077C699.514 452.475 729.253 443.695 749.82 446.508C770.387 449.315 792.105 435.242 798.122 415.221C804.085 395.205 824.399 371.582 843.18 362.757C862.04 353.892 872.78 330.225 867.05 310.14C861.321 290.004 865.775 259.08 876.838 241.395C887.9 223.745 884.239 197.955 868.643 184.119ZM655.042 326.758C611.929 326.758 576.977 291.517 576.977 248.052C576.977 204.587 611.929 169.351 655.042 169.351C698.16 169.351 733.118 204.587 733.118 248.052C733.118 291.517 698.165 326.758 655.042 326.758Z" fill="#7673D4"/>
<path d="M579.587 159.549L556.088 141.289C555.318 140.671 554.433 140.213 553.485 139.941C552.536 139.669 551.542 139.588 550.562 139.703C549.582 139.818 548.634 140.128 547.775 140.613C546.915 141.098 546.161 141.749 545.555 142.529C544.95 143.308 544.505 144.2 544.248 145.153C543.991 146.106 543.926 147.101 544.056 148.079C544.187 149.058 544.51 150 545.009 150.852C545.508 151.704 546.172 152.448 546.961 153.041L570.464 171.301C571.233 171.93 572.12 172.399 573.072 172.68C574.025 172.96 575.024 173.048 576.011 172.936C576.998 172.825 577.953 172.517 578.819 172.031C579.685 171.544 580.445 170.89 581.054 170.105C581.663 169.32 582.109 168.422 582.365 167.462C582.622 166.503 582.683 165.502 582.546 164.518C582.41 163.534 582.077 162.588 581.569 161.734C581.061 160.881 580.387 160.138 579.587 159.549ZM810.777 297.941C809.266 296.673 807.313 296.056 805.348 296.227C803.382 296.399 801.565 297.343 800.296 298.854L781.153 321.653C780.525 322.402 780.05 323.267 779.757 324.199C779.463 325.132 779.356 326.112 779.441 327.086C779.527 328.06 779.803 329.007 780.255 329.874C780.706 330.74 781.324 331.51 782.073 332.138C782.822 332.766 783.687 333.24 784.619 333.534C785.551 333.827 786.532 333.934 787.506 333.849C788.479 333.763 789.426 333.487 790.293 333.036C791.16 332.584 791.929 331.966 792.557 331.217L811.69 308.423C812.959 306.912 813.576 304.959 813.404 302.993C813.233 301.028 812.287 299.21 810.777 297.941ZM803.251 146.577C803.478 145.627 803.516 144.642 803.362 143.677C803.207 142.713 802.865 141.788 802.353 140.956C801.841 140.124 801.17 139.401 800.379 138.828C799.588 138.256 798.691 137.844 797.741 137.618L768.786 130.733C766.866 130.277 764.843 130.601 763.162 131.636C761.481 132.67 760.28 134.329 759.822 136.249C759.369 138.168 759.695 140.189 760.729 141.869C761.763 143.548 763.42 144.749 765.338 145.208L794.293 152.093C795.244 152.32 796.229 152.357 797.194 152.202C798.158 152.048 799.083 151.704 799.915 151.192C800.747 150.68 801.471 150.008 802.044 149.217C802.616 148.425 803.026 147.528 803.251 146.577ZM572.265 375.432L542.69 378.755C541.698 378.838 540.733 379.119 539.852 379.581C538.971 380.044 538.191 380.678 537.559 381.447C536.928 382.216 536.457 383.103 536.174 384.058C535.892 385.012 535.803 386.013 535.914 387.002C536.026 387.991 536.334 388.947 536.821 389.815C537.309 390.682 537.965 391.443 538.752 392.053C539.538 392.662 540.439 393.108 541.401 393.363C542.363 393.618 543.366 393.677 544.351 393.538L573.927 390.214C574.918 390.132 575.883 389.851 576.765 389.388C577.646 388.926 578.425 388.292 579.057 387.523C579.689 386.754 580.16 385.866 580.442 384.912C580.725 383.958 580.813 382.957 580.702 381.968C580.591 380.979 580.282 380.023 579.795 379.155C579.308 378.287 578.651 377.526 577.865 376.917C577.078 376.308 576.177 375.862 575.215 375.607C574.253 375.352 573.25 375.292 572.265 375.432Z" fill="#F29C1F"/>
<path d="M491.335 262.944C488.703 262.945 486.179 263.991 484.318 265.852C482.458 267.714 481.413 270.238 481.414 272.87C481.414 275.502 482.46 278.026 484.322 279.887C486.183 281.747 488.708 282.792 491.34 282.791C492.643 282.791 493.933 282.534 495.137 282.035C496.341 281.536 497.435 280.805 498.356 279.883C499.278 278.961 500.008 277.867 500.507 276.663C501.005 275.459 501.261 274.168 501.261 272.865C501.261 271.562 501.004 270.272 500.505 269.068C500.006 267.864 499.274 266.77 498.353 265.849C497.431 264.928 496.337 264.197 495.133 263.698C493.929 263.2 492.638 262.944 491.335 262.944ZM833.619 248.067C830.987 248.068 828.463 249.114 826.603 250.975C824.742 252.837 823.697 255.361 823.698 257.993C823.699 260.625 824.745 263.149 826.606 265.01C828.468 266.87 830.992 267.915 833.624 267.914C836.256 267.914 838.78 266.868 840.641 265.006C842.501 263.145 843.546 260.62 843.546 257.988C843.545 255.356 842.499 252.832 840.637 250.972C838.776 249.111 836.251 248.066 833.619 248.067Z" fill="#FFC60A"/>
<path d="M802.914 215.58C801.576 214.129 799.717 213.268 797.745 213.187C795.773 213.106 793.85 213.812 792.398 215.148L770.506 235.313C769.122 236.667 768.32 238.507 768.269 240.442C768.219 242.378 768.924 244.257 770.236 245.681C771.548 247.105 773.363 247.962 775.296 248.07C777.229 248.179 779.128 247.53 780.591 246.261L802.482 226.096C803.202 225.434 803.783 224.637 804.194 223.75C804.605 222.863 804.837 221.904 804.877 220.927C804.917 219.951 804.764 218.976 804.428 218.058C804.091 217.141 803.576 216.298 802.914 215.58ZM496.882 173.737C494.916 173.904 493.097 174.846 491.825 176.355C490.553 177.864 489.933 179.817 490.101 181.783L492.636 211.442C492.693 212.435 492.949 213.406 493.387 214.299C493.826 215.191 494.44 215.986 495.191 216.638C495.943 217.289 496.817 217.783 497.763 218.09C498.708 218.398 499.706 218.513 500.697 218.428C501.688 218.344 502.652 218.061 503.532 217.598C504.411 217.135 505.189 216.5 505.82 215.73C506.45 214.961 506.92 214.074 507.201 213.12C507.483 212.166 507.57 211.166 507.458 210.177L504.928 180.518C504.76 178.552 503.818 176.733 502.309 175.461C500.8 174.189 498.848 173.569 496.882 173.737ZM605.431 401.842C604.128 401.842 602.837 402.099 601.633 402.598C600.429 403.097 599.336 403.829 598.414 404.75C597.493 405.672 596.762 406.766 596.264 407.97C595.766 409.174 595.509 410.465 595.51 411.768C595.51 413.071 595.767 414.362 596.266 415.566C596.765 416.77 597.496 417.863 598.418 418.785C599.34 419.706 600.434 420.437 601.638 420.935C602.842 421.433 604.133 421.69 605.436 421.689C608.068 421.689 610.592 420.643 612.452 418.781C614.313 416.92 615.358 414.395 615.357 411.763C615.356 409.131 614.31 406.607 612.449 404.747C610.587 402.886 608.063 401.841 605.431 401.842ZM625.273 109.169C623.97 109.169 622.68 109.426 621.476 109.925C620.272 110.424 619.178 111.155 618.257 112.077C617.336 112.999 616.605 114.093 616.107 115.297C615.608 116.501 615.352 117.792 615.352 119.095C615.352 120.398 615.609 121.689 616.108 122.893C616.607 124.096 617.339 125.19 618.26 126.112C619.182 127.033 620.276 127.763 621.48 128.262C622.685 128.76 623.975 129.017 625.278 129.016C627.91 129.016 630.434 127.97 632.295 126.108C634.155 124.246 635.2 121.722 635.2 119.09C635.199 116.458 634.153 113.934 632.291 112.074C630.43 110.213 627.905 109.168 625.273 109.169Z" fill="#56C1A6"/>
<path d="M532.416 303.815L513.273 326.614C512.004 328.126 511.389 330.08 511.562 332.047C511.734 334.013 512.681 335.83 514.193 337.098C515.705 338.366 517.66 338.982 519.626 338.809C521.592 338.637 523.409 337.69 524.677 336.178L543.811 313.384C544.459 312.638 544.953 311.771 545.263 310.833C545.572 309.895 545.692 308.904 545.615 307.919C545.538 306.934 545.265 305.974 544.813 305.095C544.361 304.217 543.739 303.437 542.982 302.801C542.225 302.166 541.35 301.688 540.406 301.394C539.463 301.101 538.47 300.998 537.487 301.093C536.503 301.187 535.548 301.476 534.677 301.944C533.807 302.411 533.038 303.047 532.416 303.815ZM670.079 100.339C670.886 99.7898 671.578 99.0867 672.114 98.2701C672.649 97.4534 673.019 96.5392 673.202 95.5796C673.384 94.6201 673.376 93.634 673.177 92.6777C672.978 91.7214 672.593 90.8136 672.043 90.0062L655.296 65.4014C654.161 63.8307 652.458 62.7645 650.549 62.4295C648.64 62.0945 646.675 62.517 645.073 63.6072C643.471 64.6974 642.357 66.3694 641.967 68.268C641.578 70.1666 641.945 72.1422 642.989 73.7749L659.731 98.3797C660.846 100.009 662.561 101.13 664.5 101.497C666.44 101.864 668.446 101.448 670.079 100.339ZM664.959 401.842C663.656 401.842 662.366 402.099 661.162 402.598C659.958 403.097 658.864 403.829 657.943 404.75C657.022 405.672 656.291 406.766 655.793 407.97C655.294 409.175 655.038 410.465 655.038 411.768C655.038 413.072 655.295 414.362 655.794 415.566C656.293 416.77 657.025 417.863 657.946 418.785C658.868 419.706 659.962 420.437 661.166 420.935C662.371 421.434 663.661 421.69 664.964 421.69C667.596 421.689 670.12 420.643 671.981 418.781C673.841 416.92 674.886 414.395 674.886 411.763C674.885 409.131 673.839 406.607 671.977 404.747C670.116 402.886 667.591 401.841 664.959 401.842ZM575.668 327.432C573.036 327.433 570.512 328.479 568.651 330.341C566.791 332.202 565.746 334.727 565.746 337.359C565.747 339.991 566.793 342.514 568.655 344.375C570.516 346.236 573.041 347.281 575.673 347.28C578.305 347.279 580.829 346.233 582.689 344.372C584.55 342.51 585.595 339.986 585.594 337.354C585.593 334.722 584.547 332.198 582.686 330.337C580.824 328.477 578.3 327.432 575.668 327.432ZM570.707 99.2479C570.707 97.9446 570.45 96.6543 569.951 95.4504C569.452 94.2465 568.721 93.1527 567.799 92.2314C566.877 91.3101 565.783 90.5794 564.579 90.081C563.375 89.5826 562.084 89.3262 560.781 89.3266C559.478 89.3269 558.187 89.5839 556.983 90.0829C555.78 90.5819 554.686 91.3132 553.764 92.2349C552.843 93.1567 552.112 94.2508 551.614 95.455C551.116 96.6591 550.859 97.9496 550.86 99.2528C550.86 101.884 551.906 104.407 553.767 106.267C555.628 108.127 558.152 109.172 560.783 109.171C563.415 109.171 565.938 108.125 567.798 106.264C569.658 104.403 570.703 101.879 570.702 99.2479H570.707ZM769.133 173.657C767.83 173.658 766.539 173.915 765.335 174.414C764.132 174.913 763.038 175.644 762.116 176.566C761.195 177.487 760.464 178.582 759.966 179.786C759.468 180.99 759.211 182.28 759.212 183.584C759.212 184.887 759.469 186.177 759.968 187.381C760.467 188.585 761.198 189.679 762.12 190.6C763.042 191.521 764.136 192.252 765.34 192.75C766.544 193.249 767.835 193.505 769.138 193.505C771.77 193.504 774.294 192.458 776.154 190.597C778.015 188.735 779.06 186.211 779.059 183.579C779.059 180.947 778.012 178.423 776.151 176.562C774.289 174.702 771.765 173.657 769.133 173.657Z" fill="#FBF063"/>
<path d="M769.133 377.039C766.501 377.039 763.977 378.086 762.117 379.947C760.256 381.809 759.211 384.333 759.212 386.965C759.212 389.597 760.259 392.121 762.12 393.981C763.982 395.842 766.506 396.887 769.138 396.886C770.441 396.886 771.731 396.629 772.935 396.13C774.139 395.631 775.233 394.9 776.154 393.978C777.076 393.056 777.806 391.962 778.305 390.758C778.803 389.554 779.06 388.263 779.059 386.96C779.059 385.657 778.802 384.366 778.303 383.163C777.804 381.959 777.073 380.865 776.151 379.944C775.229 379.022 774.135 378.292 772.931 377.793C771.727 377.295 770.436 377.038 769.133 377.039ZM704.645 119.09C702.013 119.09 699.49 120.135 697.629 121.996C695.769 123.857 694.723 126.38 694.723 129.011C694.723 131.643 695.769 134.166 697.629 136.027C699.49 137.887 702.013 138.933 704.645 138.933C707.276 138.933 709.799 137.887 711.66 136.027C713.521 134.166 714.566 131.643 714.566 129.011C714.566 126.38 713.521 123.857 711.66 121.996C709.799 120.135 707.276 119.09 704.645 119.09Z" fill="#F57E20"/>
<path d="M716.833 367.604C716.641 366.639 716.255 365.723 715.7 364.911C715.144 364.099 714.43 363.408 713.601 362.879C712.771 362.35 711.843 361.995 710.873 361.834C709.902 361.673 708.909 361.71 707.953 361.943C705.987 362.41 704.276 363.617 703.178 365.314C702.08 367.011 701.68 369.066 702.06 371.051L708.023 400.572C708.214 401.537 708.599 402.454 709.155 403.266C709.71 404.079 710.424 404.771 711.253 405.3C712.083 405.829 713.011 406.185 713.982 406.346C714.953 406.507 715.946 406.47 716.902 406.237C718.869 405.772 720.579 404.565 721.677 402.869C722.775 401.173 723.176 399.119 722.796 397.134L716.833 367.604ZM754.251 307.59C752.948 307.59 751.657 307.847 750.454 308.346C749.25 308.845 748.156 309.576 747.235 310.498C746.313 311.42 745.583 312.514 745.084 313.718C744.586 314.922 744.329 316.213 744.33 317.516C744.33 318.819 744.587 320.11 745.086 321.313C745.585 322.517 746.316 323.611 747.238 324.532C748.16 325.454 749.254 326.184 750.458 326.683C751.662 327.181 752.953 327.438 754.256 327.437C756.888 327.437 759.412 326.39 761.272 324.529C763.133 322.667 764.178 320.143 764.177 317.511C764.177 314.879 763.13 312.355 761.269 310.495C759.407 308.634 756.883 307.589 754.251 307.59ZM535.983 228.224C534.679 228.225 533.389 228.482 532.185 228.981C530.981 229.48 529.887 230.211 528.966 231.133C528.045 232.054 527.314 233.149 526.816 234.353C526.317 235.557 526.061 236.847 526.061 238.151C526.062 239.454 526.319 240.744 526.818 241.948C527.317 243.152 528.048 244.246 528.97 245.167C529.891 246.088 530.986 246.819 532.19 247.317C533.394 247.816 534.684 248.072 535.988 248.072C538.62 248.071 541.143 247.025 543.004 245.164C544.865 243.302 545.91 240.778 545.909 238.146C545.908 235.514 544.862 232.99 543 231.129C541.139 229.269 538.615 228.224 535.983 228.224ZM635.195 362.157C632.564 362.157 630.04 363.204 628.179 365.065C626.318 366.927 625.274 369.451 625.274 372.083C625.275 374.715 626.321 377.239 628.183 379.099C630.044 380.96 632.569 382.005 635.2 382.004C637.832 382.004 640.356 380.958 642.217 379.096C644.077 377.234 645.122 374.71 645.122 372.078C645.121 369.446 644.075 366.922 642.213 365.062C640.352 363.201 637.827 362.156 635.195 362.157ZM729.448 74.4443C728.145 74.4446 726.854 74.7016 725.65 75.2006C724.446 75.6996 723.353 76.4309 722.431 77.3526C721.51 78.2743 720.779 79.3685 720.281 80.5726C719.783 81.7768 719.526 83.0673 719.526 84.3705C719.527 85.6737 719.784 86.9641 720.283 88.168C720.782 89.3719 721.513 90.4657 722.435 91.3869C723.357 92.3082 724.451 93.0389 725.655 93.5373C726.859 94.0358 728.15 94.2921 729.453 94.2918C732.085 94.2911 734.609 93.245 736.469 91.3834C738.33 89.5219 739.375 86.9975 739.374 84.3655C739.373 81.7336 738.327 79.2097 736.466 77.3491C734.604 75.4885 732.08 74.4436 729.448 74.4443ZM833.621 188.539C830.989 188.54 828.465 189.586 826.605 191.448C824.744 193.309 823.699 195.833 823.7 198.465C823.701 201.097 824.747 203.621 826.608 205.482C828.47 207.342 830.994 208.387 833.626 208.387C836.258 208.386 838.782 207.34 840.643 205.478C842.503 203.617 843.548 201.092 843.548 198.46C843.547 195.829 842.501 193.305 840.639 191.444C838.778 189.583 836.253 188.539 833.621 188.539Z" fill="#6AC9F2"/>
<path d="M664.844 486.143C527.831 486.143 416.921 375.159 416.921 238.151C416.921 172.129 442.727 112.175 484.748 67.728C436.893 112.959 407 177.001 407 248.072C407 385.08 517.91 496.065 654.923 496.065C725.969 496.065 789.996 466.172 835.228 418.321C790.78 460.343 730.846 486.143 664.844 486.143Z" fill="#E0B7C5"/>
<path d="M738.079 243.091C738.079 199.626 703.127 164.391 660.004 164.391C637.294 164.391 616.911 174.228 602.649 189.829C616.509 177.145 634.853 169.351 655.043 169.351C698.161 169.351 733.119 204.587 733.119 248.052C733.119 268.624 725.226 287.296 712.408 301.315C720.504 293.931 726.97 284.939 731.39 274.913C735.811 264.887 738.089 254.049 738.079 243.091ZM446.388 179.159C461.965 165.363 474.828 136.924 474.996 116.029C475.081 105.592 479.332 95.4576 486.128 87.5355C476.514 95.8991 470.13 108.207 470.036 120.99C469.897 139.846 459.39 164.812 445.892 179.65L446.388 179.159ZM570.519 34.7691C571.451 33.3305 572.498 31.9862 573.604 30.6865C570.489 33.2854 567.777 36.3331 565.558 39.7297C563.57 42.7461 561.328 45.5873 558.856 48.2223C563.514 43.9364 567.537 39.3775 570.519 34.7691ZM848.141 357.796C839.857 361.691 831.29 368.457 823.774 376.523C829.99 370.674 836.672 365.818 843.181 362.757C848.563 360.227 853.246 356.462 857.12 351.953C854.399 354.29 851.38 356.255 848.141 357.796ZM754.782 441.547C734.215 438.739 704.466 447.525 688.701 461.117C672.926 474.669 647.106 474.669 631.336 461.117C615.537 447.515 585.797 438.734 565.25 441.547C544.703 444.36 522.961 430.281 516.973 410.26C510.986 390.239 490.677 366.621 471.876 357.796C453.056 348.932 442.311 325.269 448.025 305.179C453.73 285.044 449.315 254.119 438.213 236.434C427.999 220.173 430.356 197.007 442.976 182.646L441.428 184.119C425.846 197.955 422.171 223.75 433.253 241.395C444.355 259.08 448.77 290.004 443.065 310.14C437.355 330.23 448.095 353.892 466.916 362.757C485.716 371.582 506.025 395.205 512.013 415.221C518 435.232 539.743 449.315 560.29 446.508C580.837 443.7 610.581 452.485 626.376 466.077C642.15 479.63 667.971 479.63 683.74 466.077C699.515 452.475 729.254 443.695 749.821 446.508C764.559 448.512 779.853 441.84 789.571 430.539C780.027 438.754 767.203 443.244 754.782 441.547Z" fill="#5C58C8"/>
<path d="M324.606 328.234H282.526V204.414C282.526 197.837 279.911 191.53 275.257 186.879C270.603 182.229 264.291 179.616 257.709 179.616H247.849C244.59 179.616 241.363 180.258 238.352 181.504C235.341 182.75 232.605 184.577 230.301 186.879C227.996 189.182 226.168 191.916 224.921 194.924C223.674 197.933 223.032 201.157 223.032 204.414V328.234H104.336C101.894 328.234 99.4939 327.603 97.3679 326.403C95.2419 325.203 93.4623 323.474 92.2019 321.384C90.9416 319.294 90.2431 316.915 90.1744 314.476C90.1057 312.037 90.669 309.621 91.8098 307.464L217.436 69.8804C219.002 66.9184 219.952 63.6699 220.227 60.3311C220.502 56.9923 220.097 53.6324 219.037 50.4543C217.976 47.2762 216.283 44.3456 214.058 41.8396C211.833 39.3337 209.122 37.3041 206.091 35.8736L198.675 32.3744C192.916 29.6573 186.333 29.256 180.287 31.2538C174.24 33.2515 169.194 37.4953 166.192 43.107L12.9741 329.505C10.365 334.382 9 339.826 9 345.356C9 349.772 9.87041 354.144 11.5615 358.224C13.2526 362.303 15.7314 366.01 18.8561 369.132C21.9809 372.255 25.6906 374.731 29.7733 376.421C33.856 378.111 38.2319 378.981 42.651 378.981H223.032V457.277C223.032 461.18 223.801 465.045 225.296 468.651C226.791 472.258 228.982 475.534 231.745 478.294C234.507 481.054 237.786 483.244 241.395 484.737C245.004 486.231 248.872 487 252.779 487C256.685 487 260.553 486.231 264.162 484.737C267.771 483.244 271.051 481.054 273.813 478.294C276.575 475.534 278.766 472.258 280.261 468.651C281.756 465.045 282.526 461.18 282.526 457.277V378.981H324.606C331.341 378.981 337.8 376.308 342.562 371.549C347.325 366.791 350 360.337 350 353.607C350 346.878 347.325 340.424 342.562 335.665C337.8 330.907 331.341 328.234 324.606 328.234Z" fill="#7673D4"/>
<path d="M315.606 317.234H273.526V193.414C273.526 186.837 270.911 180.53 266.257 175.879C261.603 171.229 255.291 168.616 248.709 168.616H238.849C235.59 168.616 232.363 169.258 229.352 170.504C226.341 171.75 223.605 173.577 221.301 175.879C218.996 178.182 217.168 180.916 215.921 183.924C214.674 186.933 214.032 190.157 214.032 193.414V317.234H95.3361C92.8943 317.234 90.4939 316.603 88.3679 315.403C86.2419 314.203 84.4623 312.474 83.2019 310.384C81.9416 308.294 81.2431 305.915 81.1744 303.476C81.1057 301.037 81.669 298.621 82.8098 296.464L208.436 58.8804C210.002 55.9184 210.952 52.6699 211.227 49.3311C211.502 45.9923 211.097 42.6324 210.037 39.4543C208.976 36.2762 207.283 33.3456 205.058 30.8396C202.833 28.3337 200.122 26.3041 197.091 24.8736L189.675 21.3744C183.916 18.6573 177.333 18.256 171.287 20.2538C165.24 22.2515 160.194 26.4953 157.192 32.107L3.97409 318.505C1.365 323.382 -5.15037e-07 328.826 0 334.356C0 338.772 0.870406 343.144 2.56153 347.224C4.25265 351.303 6.73136 355.01 9.85615 358.132C12.9809 361.255 16.6906 363.731 20.7733 365.421C24.856 367.111 29.2319 367.981 33.651 367.981H214.032V446.277C214.032 450.18 214.801 454.045 216.296 457.651C217.791 461.258 219.982 464.534 222.745 467.294C225.507 470.054 228.786 472.244 232.395 473.737C236.004 475.231 239.872 476 243.779 476C247.685 476 251.553 475.231 255.162 473.737C258.771 472.244 262.051 470.054 264.813 467.294C267.575 464.534 269.766 461.258 271.261 457.651C272.756 454.045 273.526 450.18 273.526 446.277V367.981H315.606C322.341 367.981 328.8 365.308 333.562 360.549C338.325 355.791 341 349.337 341 342.607C341 335.878 338.325 329.424 333.562 324.665C328.8 319.907 322.341 317.234 315.606 317.234Z" fill="#FCCCDC"/>
<path d="M1293.61 339.234H1251.53V215.414C1251.53 208.837 1248.91 202.53 1244.26 197.879C1239.6 193.229 1233.29 190.616 1226.71 190.616H1216.85C1213.59 190.616 1210.36 191.258 1207.35 192.504C1204.34 193.75 1201.61 195.577 1199.3 197.879C1197 200.182 1195.17 202.916 1193.92 205.924C1192.67 208.933 1192.03 212.157 1192.03 215.414V339.234H1073.34C1070.89 339.234 1068.49 338.603 1066.37 337.403C1064.24 336.203 1062.46 334.474 1061.2 332.384C1059.94 330.294 1059.24 327.915 1059.17 325.476C1059.11 323.037 1059.67 320.621 1060.81 318.464L1186.44 80.8804C1188 77.9184 1188.95 74.6699 1189.23 71.3311C1189.5 67.9923 1189.1 64.6324 1188.04 61.4543C1186.98 58.2762 1185.28 55.3456 1183.06 52.8396C1180.83 50.3337 1178.12 48.3041 1175.09 46.8736L1167.67 43.3744C1161.92 40.6573 1155.33 40.256 1149.29 42.2538C1143.24 44.2515 1138.19 48.4953 1135.19 54.107L981.974 340.505C979.365 345.382 978 350.826 978 356.356C978 360.772 978.87 365.144 980.562 369.224C982.253 373.303 984.731 377.01 987.856 380.132C990.981 383.255 994.691 385.731 998.773 387.421C1002.86 389.111 1007.23 389.981 1011.65 389.981H1192.03V468.277C1192.03 472.18 1192.8 476.045 1194.3 479.651C1195.79 483.258 1197.98 486.534 1200.74 489.294C1203.51 492.054 1206.79 494.244 1210.4 495.737C1214 497.231 1217.87 498 1221.78 498C1225.69 498 1229.55 497.231 1233.16 495.737C1236.77 494.244 1240.05 492.054 1242.81 489.294C1245.58 486.534 1247.77 483.258 1249.26 479.651C1250.76 476.045 1251.53 472.18 1251.53 468.277V389.981H1293.61C1300.34 389.981 1306.8 387.308 1311.56 382.549C1316.32 377.791 1319 371.337 1319 364.607C1319 357.878 1316.32 351.424 1311.56 346.665C1306.8 341.907 1300.34 339.234 1293.61 339.234Z" fill="#7673D4"/>
<path d="M1284.61 328.234H1242.53V204.414C1242.53 197.837 1239.91 191.53 1235.26 186.879C1230.6 182.229 1224.29 179.616 1217.71 179.616H1207.85C1204.59 179.616 1201.36 180.258 1198.35 181.504C1195.34 182.75 1192.61 184.577 1190.3 186.879C1188 189.182 1186.17 191.916 1184.92 194.924C1183.67 197.933 1183.03 201.157 1183.03 204.414V328.234H1064.34C1061.89 328.234 1059.49 327.603 1057.37 326.403C1055.24 325.203 1053.46 323.474 1052.2 321.384C1050.94 319.294 1050.24 316.915 1050.17 314.476C1050.11 312.037 1050.67 309.621 1051.81 307.464L1177.44 69.8804C1179 66.9184 1179.95 63.6699 1180.23 60.3311C1180.5 56.9923 1180.1 53.6324 1179.04 50.4543C1177.98 47.2762 1176.28 44.3456 1174.06 41.8396C1171.83 39.3337 1169.12 37.3041 1166.09 35.8736L1158.67 32.3744C1152.92 29.6573 1146.33 29.256 1140.29 31.2538C1134.24 33.2515 1129.19 37.4953 1126.19 43.107L972.974 329.505C970.365 334.382 969 339.826 969 345.356C969 349.772 969.87 354.144 971.562 358.224C973.253 362.303 975.731 366.01 978.856 369.132C981.981 372.255 985.691 374.731 989.773 376.421C993.856 378.111 998.232 378.981 1002.65 378.981H1183.03V457.277C1183.03 461.18 1183.8 465.045 1185.3 468.651C1186.79 472.258 1188.98 475.534 1191.74 478.294C1194.51 481.054 1197.79 483.244 1201.4 484.737C1205 486.231 1208.87 487 1212.78 487C1216.69 487 1220.55 486.231 1224.16 484.737C1227.77 483.244 1231.05 481.054 1233.81 478.294C1236.58 475.534 1238.77 472.258 1240.26 468.651C1241.76 465.045 1242.53 461.18 1242.53 457.277V378.981H1284.61C1291.34 378.981 1297.8 376.308 1302.56 371.549C1307.32 366.791 1310 360.337 1310 353.607C1310 346.878 1307.32 340.424 1302.56 335.665C1297.8 330.907 1291.34 328.234 1284.61 328.234Z" fill="#FCCCDC"/>
</g>
<defs>
<clipPath id="clip0_702_2">
<rect width="1319" height="498" fill="white"/>
</clipPath>
</defs>
</svg>
