<svg width="32" height="32" viewBox="0 0 46 46" fill="none" xmlns="http://www.w3.org/2000/svg">
<path fill-rule="evenodd" clip-rule="evenodd" d="M28.9287 27.2722H30.4114L39.7771 36.6472L36.9805 39.441L27.5961 30.0847V28.6035L27.0894 28.0785C24.9497 29.916 22.1719 31.0222 19.1502 31.0222C12.4122 31.0222 6.95044 25.566 6.95044 18.8347C6.95044 12.1035 12.4122 6.64722 19.1502 6.64722C25.8882 6.64722 31.3499 12.1035 31.3499 18.8347C31.3499 21.8535 30.2425 24.6285 28.4032 26.766L28.9287 27.2722ZM10.7042 18.8347C10.7042 23.5035 14.4767 27.2722 19.1502 27.2722C23.8236 27.2722 27.5961 23.5035 27.5961 18.8347C27.5961 14.166 23.8236 10.3972 19.1502 10.3972C14.4767 10.3972 10.7042 14.166 10.7042 18.8347Z" fill="#191D53"/>
</svg>
