<svg width="26" height="19" viewBox="0 0 26 19" fill="none" xmlns="http://www.w3.org/2000/svg">
<path fill-rule="evenodd" clip-rule="evenodd" d="M23.2555 1.29622C24.3312 1.5914 25.1783 2.46115 25.4658 3.56564C25.9883 5.56742 25.9883 9.74414 25.9883 9.74414C25.9883 9.74414 25.9883 13.9207 25.4658 15.9226C25.1783 17.0271 24.3312 17.8969 23.2555 18.1922C21.306 18.7285 13.4883 18.7285 13.4883 18.7285C13.4883 18.7285 5.67053 18.7285 3.72095 18.1922C2.64524 17.8969 1.79808 17.0271 1.51058 15.9226C0.988281 13.9207 0.988281 9.74414 0.988281 9.74414C0.988281 9.74414 0.988281 5.56742 1.51058 3.56564C1.79808 2.46115 2.64524 1.5914 3.72095 1.29622C5.67053 0.759766 13.4883 0.759766 13.4883 0.759766C13.4883 0.759766 21.306 0.759766 23.2555 1.29622ZM11.1446 6.22847V14.041L17.3946 10.1349L11.1446 6.22847Z" fill="#191D53"/>
</svg>
